<?xml version="1.0" encoding="UTF-8"?>
<svg id="OBJECTS" xmlns="http://www.w3.org/2000/svg" viewBox="0 0 750 500">
  <defs>
    <style>
      .cls-1 {
        stroke-dasharray: 0 0 3.81 3.81;
      }

      .cls-1, .cls-2, .cls-3, .cls-4, .cls-5, .cls-6, .cls-7, .cls-8, .cls-9, .cls-10, .cls-11, .cls-12, .cls-13, .cls-14, .cls-15, .cls-16, .cls-17 {
        fill: none;
        stroke-miterlimit: 10;
      }

      .cls-1, .cls-3, .cls-5, .cls-7, .cls-9, .cls-10, .cls-11, .cls-13, .cls-15, .cls-16, .cls-17 {
        stroke: #fd783d;
      }

      .cls-18, .cls-19, .cls-20, .cls-21, .cls-22 {
        fill: #fff;
      }

      .cls-2 {
        stroke: #0a6d53;
      }

      .cls-19 {
        font-size: 13.84px;
      }

      .cls-19, .cls-20, .cls-22, .cls-23 {
        font-family: Montserrat-Bold, 'Montserrat Bold';
        font-weight: 700;
      }

      .cls-24 {
        fill: #4b7195;
      }

      .cls-3 {
        stroke-dasharray: 0 0 4.12 4.12;
      }

      .cls-25 {
        fill: #9a304f;
      }

      .cls-26 {
        fill: #5a93a0;
      }

      .cls-26, .cls-27 {
        opacity: .4;
      }

      .cls-28 {
        fill: #2b2b3f;
      }

      .cls-28, .cls-29, .cls-30, .cls-31 {
        opacity: .5;
      }

      .cls-32 {
        fill: #47547c;
      }

      .cls-33, .cls-23 {
        fill: #eba154;
      }

      .cls-4 {
        stroke: #c87e84;
        stroke-width: .5px;
      }

      .cls-5 {
        stroke-dasharray: 0 0 3.83 3.83;
      }

      .cls-6 {
        stroke: #dc831e;
        stroke-width: 3px;
      }

      .cls-29, .cls-34 {
        fill: #0c8068;
      }

      .cls-30 {
        fill: #d9751f;
      }

      .cls-7 {
        stroke-dasharray: 0 0 3.38 3.38;
      }

      .cls-8 {
        stroke: #b83d5d;
      }

      .cls-9 {
        stroke-dasharray: 0 0 3.89 3.89;
      }

      .cls-35 {
        fill: #c87e84;
      }

      .cls-20, .cls-21 {
        font-size: 18.43px;
      }

      .cls-36, .cls-37, .cls-38 {
        fill: #323247;
      }

      .cls-11 {
        stroke-dasharray: 0 0 3.74 3.74;
      }

      .cls-39 {
        fill: #c33e5d;
      }

      .cls-12 {
        stroke: #0c8068;
      }

      .cls-40 {
        fill: #fd783d;
      }

      .cls-41 {
        fill: #36364f;
      }

      .cls-42 {
        letter-spacing: -.04em;
      }

      .cls-27 {
        fill: #a3d5e6;
      }

      .cls-21, .cls-37, .cls-38 {
        font-family: Montserrat-Black, 'Montserrat Black';
        font-weight: 800;
      }

      .cls-43 {
        fill: #dc831e;
      }

      .cls-44 {
        fill: #80abbd;
      }

      .cls-22 {
        font-size: 44.39px;
      }

      .cls-45 {
        fill: #b83d5d;
      }

      .cls-37 {
        font-size: 25.44px;
      }

      .cls-46 {
        fill: #49496b;
      }

      .cls-13 {
        stroke-dasharray: 0 0 4.06 4.06;
      }

      .cls-23 {
        font-size: 15.61px;
      }

      .cls-47 {
        letter-spacing: 0em;
      }

      .cls-31 {
        fill: #0a6d53;
      }

      .cls-38 {
        font-size: 26.41px;
      }

      .cls-48 {
        fill: #d78f97;
      }

      .cls-14 {
        stroke: #fff;
        stroke-width: 4px;
      }

      .cls-49 {
        fill: #64648e;
      }

      .cls-50 {
        fill: #54b3cd;
      }

      .cls-51 {
        fill: #159a7a;
      }

      .cls-15 {
        stroke-dasharray: 0 0 3.4 3.4;
      }

      .cls-52 {
        fill: #e3b5aa;
      }

      .cls-16 {
        stroke-dasharray: 0 0 5.07 5.07;
      }

      .cls-17 {
        stroke-dasharray: 0 4;
      }
    </style>
  </defs>
  <text class="cls-37" transform="translate(312.22 315.87)"><tspan x="0" y="0">&lt;/&gt;</tspan></text>
  <g>
    <path class="cls-45" d="m466.06,221.79c-1.49,32.66-33.6,57.69-57.65,59.21-31.78,2-54.49-26.66-57.65-59.21-2.74-28.19,7.27-27.77,14.73-39.53,9.04-14.24,25.88-22.11,42.92-22.11,31.84,0,59.66,17.69,57.65,61.64Z"/>
    <rect class="cls-52" x="386.06" y="277.95" width="44.69" height="55.94"/>
    <g>
      <path class="cls-52" d="m458.6,245.31c7.97-12.1,18.11-12.63,22.35,1.68,4.23,14.31-9.74,26.08-21.12,21.73-11.38-4.34-1.22-23.41-1.22-23.41Z"/>
      <path class="cls-48" d="m468.01,245.63c5.34-.98,8.08,14.93-3.63,15.46l2.41-5.55-2.26-4.62,3.49-5.29Z"/>
      <path class="cls-4" d="m462.62,263.27c6.83-7.27,1.9-12.35,1.9-12.35,0,0,6.5-13.32,9.1-3.11"/>
    </g>
    <g>
      <path class="cls-52" d="m357.84,245.31c-7.97-12.1-18.11-12.63-22.35,1.68-4.23,14.31,9.74,26.08,21.12,21.73,11.38-4.34,1.22-23.41,1.22-23.41Z"/>
      <path class="cls-48" d="m348.43,245.63c-5.34-.98-8.08,14.93,3.63,15.46l-2.41-5.55,2.26-4.62-3.49-5.29Z"/>
      <path class="cls-4" d="m353.81,263.27c-6.83-7.27-1.9-12.35-1.9-12.35,0,0-6.5-13.32-9.1-3.11"/>
    </g>
    <path class="cls-35" d="m430.75,279.18v20.81c-16.06,21.76-44.69,14.69-44.69,14.69l.5-35.5h44.19Z"/>
    <path class="cls-52" d="m392.73,186.81h31.35c18.01,0,32.62,14.62,32.62,32.62v35.3c0,26.66-21.64,48.3-48.3,48.3h0c-26.66,0-48.3-21.64-48.3-48.3v-35.3c0-18.01,14.62-32.62,32.62-32.62Z"/>
    <path class="cls-8" d="m415.84,261.04c0,4.1-3.33,7.43-7.43,7.43s-7.43-3.33-7.43-7.43"/>
    <path class="cls-45" d="m365.21,188.97s-8.46-14.02,2.14-26.39c0,0,7.61,14.1-2.14,26.39Z"/>
    <path class="cls-45" d="m369.51,185.64s-11.78,11.38-26.2,3.81c0,0,12.04-10.57,26.2-3.81Z"/>
    <path class="cls-41" d="m389.22,243.71c0,3.99-1.7,7.23-3.8,7.23s-3.8-3.24-3.8-7.23,1.7-7.23,3.8-7.23,3.8,3.24,3.8,7.23Z"/>
    <circle class="cls-14" cx="383.46" cy="243.17" r="19.42" transform="translate(48.26 549.46) rotate(-74.8)"/>
    <path class="cls-41" d="m435.18,243.71c0,3.99-1.7,7.23-3.8,7.23s-3.8-3.24-3.8-7.23,1.7-7.23,3.8-7.23,3.8,3.24,3.8,7.23Z"/>
    <circle class="cls-14" cx="433.35" cy="243.17" r="19.42" transform="translate(83.33 595.88) rotate(-74.52)"/>
    <path class="cls-45" d="m366.09,200.59s30.68-16.18,51.07-4.45c20.39,11.72,22.68,35.94,42.82,29.67,0,0,15.29-6.73-1.53-30.18-16.82-23.45-28.33-28.04-50.23-22.94s-36.15,9.06-42.13,27.9Z"/>
    <path class="cls-25" d="m364.92,200.36s10.13-13.43,24.31-16.98c14.18-3.55,29.86,13.89,29.86,13.89,0,0-36.33-5.18-54.17,3.09Z"/>
    <path class="cls-45" d="m360.18,217.25s3.42,24.93,0,40.14c0,0-4.99-38.65,0-40.14Z"/>
    <path class="cls-45" d="m456.35,217.25s-3.42,24.93,0,40.14c0,0,4.99-38.65,0-40.14Z"/>
    <path class="cls-45" d="m394.08,215.31c-5.27-2.52-14.64-5.29-23.33.89-1.46,1.04-.9,3.33.86,3.63,2.79.48,6.78.98,11.31.95,3.52-.02,7.68-.89,10.79-1.69,1.83-.47,2.08-2.97.37-3.79Z"/>
    <path class="cls-45" d="m444.98,215.31c-5.27-2.52-14.64-5.29-23.33.89-1.46,1.04-.9,3.33.86,3.63,2.79.48,6.78.98,11.31.95,3.52-.02,7.68-.89,10.79-1.69,1.83-.47,2.08-2.97.37-3.79Z"/>
    <g>
      <path class="cls-39" d="m424.74,278.49c-.5.89-1.09,1.83-1.9,2.76-2.58,3.11-6.97,6.09-14.48,6.23v.03s-.56-.01-.56-.01l-.02-.04c-7.04-.14-11.38-2.79-14-5.71-1.01-1.1-1.78-2.26-2.34-3.31-1.25-2.4-1.58-4.29-1.58-4.29l36.47.07s-.3,1.89-1.59,4.27Z"/>
      <path class="cls-41" d="m424.74,278.49c-.5.89-1.09,1.83-1.9,2.76-8.37-3.68-18.44-4.45-29.06.5-1.01-1.1-1.78-2.26-2.34-3.31-1.25-2.4-1.58-4.29-1.58-4.29l36.47.07s-.3,1.89-1.59,4.27Z"/>
    </g>
    <path class="cls-33" d="m563.43,472.85l-326.96.34s6.1-12.76,14.88-29.67c.65-1.25,1.32-2.53,2-3.83,11.99-22.87,28.12-51.76,40.71-67.43,14.5-18.04,48.76-30.9,72.03-37.93,13.56-4.09,23.38-6.2,23.38-6.2h37.56s8.82,1.89,21.28,5.58c23.25,6.87,58.01,20.97,74.13,38.55,3.54,3.86,6.87,8.53,9.99,13.71,19.84,32.97,31,86.88,31,86.88Z"/>
    <path class="cls-30" d="m563.43,472.85l-326.96.34s6.1-12.76,14.88-29.67c163.16,47.96,249.14-30.64,268.76-51.92,3.17-3.44,7.57-5.5,12.24-5.63h.08c19.84,32.97,31,86.88,31,86.88Z"/>
    <line class="cls-14" x1="403.28" y1="246.47" x2="413.53" y2="246.47"/>
    <path class="cls-52" d="m448.31,333.7c-40.47,44.53-82.22.63-82.22.63,13.56-4.1,23.38-6.21,23.38-6.21h37.56s8.82,1.9,21.28,5.58Z"/>
    <g>
      <line class="cls-6" x1="319.04" y1="422.46" x2="319.04" y2="473.25"/>
      <line class="cls-6" x1="319.04" y1="454.83" x2="305.41" y2="437.45"/>
    </g>
    <g>
      <line class="cls-6" x1="496.84" y1="422.46" x2="496.84" y2="473.25"/>
      <line class="cls-6" x1="496.84" y1="454.83" x2="508.95" y2="439.39"/>
    </g>
    <path class="cls-6" d="m364.15,353.66s50.18,34.27,84.16-1.66"/>
    <text class="cls-22" transform="translate(451.72 424.13)"><tspan x="0" y="0">x</tspan></text>
    <path class="cls-45" d="m364.93,179.59c11.27-47.36,124.15-42.15,103.15,50.06-6.29,27.62-52.3-62.79-92.01-40.61-2.97,1.66-6.67,1.23-9.15-1.09h0c-2.28-2.13-2.72-5.32-1.99-8.36Z"/>
  </g>
  <g>
    <g>
      <path class="cls-44" d="m426.93,472.88s-.07.02-.11.02c-.27.03-.55.04-.83.04h-218.99c-2.91,0-5.5-1.35-7.19-3.47-1.26-1.57-2.01-3.57-2.01-5.74l-.03-.1-34.1-96.35c-2.61-7.36,2.85-15.09,10.66-15.09h142.18c4.8,0,9.07,3.02,10.67,7.54l36.75,103.82.06.18h62.21c5.71,0,6.34,8.54.73,9.15Z"/>
      <path class="cls-18" d="m263.62,410.35c3.6,10.45-.47,21.33-9.08,24.29-8.61,2.96-18.51-3.11-22.1-13.57-3.6-10.45.47-21.33,9.08-24.29,8.61-2.96,18.51,3.11,22.1,13.57Z"/>
      <path class="cls-24" d="m426.2,463.73h-62.21s-.02-.06-.05-.18l-36.76-103.82c-1.6-4.52-5.87-7.53-10.67-7.53h-4.75s10.62.69,13.28,10.2c2.66,9.5,38.95,110.35,38.95,110.35l2.68.2h59.31c.29,0,.57,0,.84-.04,5.73-.52,5.12-9.17-.62-9.17Z"/>
    </g>
    <path class="cls-26" d="m426.93,472.88s-.07.02-.11.02c-.27.03-.55.04-.83.04h-218.99c-2.91,0-5.5-1.35-7.19-3.47,129.44,11.12,116.7-117.28,116.7-117.28,4.8,0,9.07,3.02,10.67,7.54l36.75,103.82.06.18h61.23c.66,3.03,1.24,6.08,1.71,9.15Z"/>
  </g>
  <g>
    <g>
      <g>
        <g>
          <path class="cls-24" d="m166.53,409.33v3.22c-5.83.67-7.25,5.59-7.25,11.59v1.98c0,6,1.43,10.92,7.25,11.59v3.21H55.14c-4.57,0-8.27-3.7-8.27-8.27v-15.03c0-4.57,3.7-8.29,8.27-8.29h111.39Z"/>
          <path class="cls-18" d="m164.8,434.42c.67,1.58-.56,3.3-2.26,3.3l-106.45.08v-25.32l106.45.08c.62,0,1.18.23,1.6.6.74.62,1.08,1.69.67,2.7-.88,2.11-.85,5.04-.85,8.29v1.98c0,3.25-.03,6.18.85,8.29Z"/>
          <path class="cls-27" d="m164.13,413.16c-2.05.11-96.11,4.97-102.56,14.12-1.75,2.48-3.73,3.86-5.49,4.14v-18.93l106.45.08c.62,0,1.18.23,1.6.6Z"/>
        </g>
        <path class="cls-24" d="m52.21,409.34h9.36v31.59h-9.36c-2.95,0-5.34-2.39-5.34-5.34v-20.91c0-2.95,2.39-5.34,5.34-5.34Z"/>
        <path class="cls-27" d="m164.8,434.42c.67,1.58-.56,3.3-2.26,3.3l-21.25.02c16.88-1.92,15.83-15.79,15.83-15.79.19-.67-13.34-8.8-13.11-9.41l18.53.02c.62,0,1.18.23,1.6.6.74.62,1.08,1.69.67,2.7-.88,2.11-.85,5.04-.85,8.29v1.98c0,3.25-.03,6.18.85,8.29Z"/>
      </g>
      <g>
        <rect class="cls-27" x="61.75" y="423.29" width="102.19" height="2.28"/>
        <rect class="cls-27" x="61.75" y="418.15" width="102.19" height="2.28"/>
        <rect class="cls-27" x="61.75" y="429.83" width="102.19" height="2.28"/>
      </g>
      <polygon class="cls-39" points="131.03 433.07 125.6 427.65 120.16 433.07 120.16 418.15 131.03 418.15 131.03 433.07"/>
    </g>
    <g>
      <g>
        <g>
          <path class="cls-39" d="m178.45,440.82v3.22c-5.83.67-7.25,5.59-7.25,11.59v1.98c0,6,1.43,10.92,7.25,11.59v3.21h-111.39c-4.57,0-8.27-3.7-8.27-8.27v-15.03c0-4.57,3.7-8.29,8.27-8.29h111.39Z"/>
          <path class="cls-18" d="m176.71,465.9c.67,1.58-.56,3.3-2.26,3.3l-106.45.08v-25.32l106.45.08c.62,0,1.18.23,1.6.6.74.62,1.08,1.69.67,2.7-.88,2.11-.85,5.04-.85,8.29v1.98c0,3.25-.03,6.18.85,8.29Z"/>
          <path class="cls-27" d="m176.05,444.64c-2.05.11-96.11,4.97-102.56,14.12-1.75,2.48-3.73,3.86-5.49,4.14v-18.93l106.45.08c.62,0,1.18.23,1.6.6Z"/>
        </g>
        <path class="cls-39" d="m64.13,440.82h9.36v31.59h-9.36c-2.95,0-5.34-2.39-5.34-5.34v-20.91c0-2.95,2.39-5.34,5.34-5.34Z"/>
        <path class="cls-27" d="m176.71,465.9c.67,1.58-.56,3.3-2.26,3.3l-21.25.02c16.88-1.92,15.83-15.79,15.83-15.79.19-.67-13.34-8.8-13.11-9.41l18.53.02c.62,0,1.18.23,1.6.6.74.62,1.08,1.69.67,2.7-.88,2.11-.85,5.04-.85,8.29v1.98c0,3.25-.03,6.18.85,8.29Z"/>
      </g>
      <g>
        <rect class="cls-27" x="73.67" y="454.77" width="102.19" height="2.28"/>
        <rect class="cls-27" x="73.67" y="449.63" width="102.19" height="2.28"/>
        <rect class="cls-27" x="73.67" y="461.31" width="102.19" height="2.28"/>
      </g>
      <polygon class="cls-39" points="164.68 466.54 158.94 460.81 153.2 466.54 153.2 450.78 164.68 450.78 164.68 466.54"/>
    </g>
  </g>
  <g>
    <path class="cls-32" d="m717.85,486.14v2.31c0,7.06-5.73,12.78-12.79,12.78H51.02c-5.95,0-10.95-4.06-12.38-9.55,0-.01,0-.02,0-.03-.26-1.03-.4-2.1-.4-3.2v-2.31c0-7.06,5.72-12.78,12.79-12.78h654.04c7.06,0,12.79,5.72,12.79,12.78Z"/>
    <path class="cls-28" d="m717.85,486.14v2.31c0,7.06-5.73,12.78-12.79,12.78H51.02c-5.95,0-10.95-4.06-12.38-9.55,0-.01,0-.02,0-.03-.27-2.05-.4-3.2-.4-3.2,366.75,12.78,666.83-15.09,666.83-15.09,7.06,0,12.79,5.72,12.79,12.78Z"/>
  </g>
  <g>
    <path class="cls-33" d="m701.54,135.73c0-.08.01-.16.01-.24s-.01-.16-.01-.23c1.2-.55,2.4-1.19,3.59-1.96,1.27-.87,2.56-1.88,3.76-3.04l-.26-1.02c-.25-1.16-.7-2.27-1.1-3.38-.23-.54-.5-1.07-.76-1.6-.24-.55-.53-1.06-.85-1.56l-.54-.9c-1.63.01-3.29.22-4.8.5-1.36.28-2.68.69-3.91,1.16l-.33-.33c.46-1.24.87-2.55,1.14-3.91.29-1.51.5-3.16.51-4.8l-.89-.54c-.5-.32-1.02-.61-1.56-.85-.53-.26-1.06-.53-1.61-.76-1.11-.41-2.22-.85-3.37-1.1l-1.02-.26c-1.15,1.2-2.16,2.48-3.04,3.76-.77,1.18-1.4,2.38-1.96,3.59-.07,0-.16-.02-.23-.02-.08,0-.16.02-.24.02-.54-1.21-1.19-2.41-1.96-3.59-.86-1.28-1.88-2.56-3.03-3.76l-1.02.26c-1.17.25-2.27.7-3.38,1.1-.54.23-1.07.5-1.61.76-.54.24-1.05.53-1.56.85l-.89.54c.02,1.63.23,3.29.51,4.8.28,1.36.69,2.67,1.15,3.91-.11.11-.23.22-.33.33-1.24-.47-2.55-.87-3.91-1.16-1.51-.28-3.17-.49-4.8-.5l-.55.9c-.31.5-.6,1.01-.85,1.56-.25.53-.52,1.06-.75,1.6-.42,1.11-.85,2.23-1.1,3.38l-.26,1.02c1.2,1.16,2.48,2.16,3.76,3.04,1.18.77,2.38,1.4,3.58,1.96,0,.07,0,.15,0,.23s0,.16,0,.24c-1.2.54-2.4,1.19-3.58,1.96-1.28.86-2.56,1.88-3.76,3.03l.26,1.02c.25,1.16.69,2.27,1.1,3.38.23.54.5,1.07.75,1.61.25.54.54,1.05.85,1.55l.55.9c1.62-.01,3.29-.22,4.8-.5,1.36-.28,2.67-.69,3.91-1.16.1.11.22.23.33.33-.47,1.24-.87,2.55-1.15,3.91-.28,1.51-.49,3.17-.51,4.8l.89.55c.51.31,1.02.6,1.56.84.54.26,1.07.53,1.61.76,1.11.42,2.22.85,3.38,1.1l1.02.26c1.14-1.2,2.16-2.48,3.03-3.76.77-1.18,1.42-2.38,1.96-3.59.08.01.16.02.24.02.07,0,.16-.01.23-.02.55,1.21,1.19,2.41,1.96,3.59.87,1.28,1.88,2.56,3.04,3.76l1.02-.26c1.16-.25,2.26-.69,3.37-1.1.55-.23,1.08-.5,1.61-.76.54-.24,1.06-.53,1.56-.84l.89-.55c-.01-1.62-.22-3.29-.51-4.8-.27-1.36-.69-2.67-1.14-3.91.11-.1.22-.22.33-.33,1.23.47,2.55.87,3.91,1.16,1.51.28,3.16.49,4.8.5l.54-.9c.32-.5.61-1.01.85-1.55.26-.54.53-1.07.76-1.61.41-1.11.85-2.23,1.1-3.38l.26-1.02c-1.2-1.14-2.49-2.16-3.76-3.03-1.19-.77-2.39-1.42-3.59-1.96Zm-17.24,8.01c-4.56,0-8.25-3.69-8.25-8.25s3.69-8.25,8.25-8.25,8.25,3.69,8.25,8.25-3.69,8.25-8.25,8.25Z"/>
    <polyline class="cls-17" points="660.64 148.23 604.95 148.23 604.95 203.07 620.41 203.07"/>
    <g>
      <rect class="cls-18" x="621.74" y="232.42" width="30.61" height="5.47"/>
      <rect class="cls-18" x="621.74" y="242.55" width="47.07" height="5.47"/>
      <rect class="cls-18" x="621.74" y="252.67" width="16.03" height="5.47"/>
      <rect class="cls-33" x="644.31" y="252.67" width="16.03" height="5.47"/>
      <rect class="cls-33" x="666.08" y="252.67" width="23.02" height="5.47"/>
      <rect class="cls-33" x="675.12" y="242.55" width="13.98" height="5.47"/>
      <rect class="cls-33" x="658.49" y="232.42" width="30.61" height="5.47"/>
    </g>
    <rect class="cls-18" x="699.29" y="196.99" width="1.02" height="60.98"/>
  </g>
  <g>
    <rect class="cls-18" x="622.21" y="199.23" width="31.48" height="5.63"/>
    <rect class="cls-18" x="622.21" y="209.64" width="48.4" height="5.63"/>
    <rect class="cls-18" x="622.21" y="220.05" width="16.48" height="5.63"/>
    <rect class="cls-33" x="645.43" y="220.05" width="16.48" height="5.63"/>
    <rect class="cls-33" x="667.81" y="220.05" width="23.67" height="5.63"/>
    <rect class="cls-33" x="677.11" y="209.64" width="14.38" height="5.63"/>
    <rect class="cls-33" x="660" y="199.23" width="31.48" height="5.63"/>
  </g>
  <g>
    <g>
      <rect class="cls-46" x="492.11" y="94.37" width="90.59" height="178.02"/>
      <rect class="cls-18" x="502.43" y="132.23" width="68.02" height="7.22"/>
      <rect class="cls-18" x="502.43" y="148.23" width="45.02" height="7.22"/>
      <rect class="cls-33" x="554.14" y="148.23" width="16.31" height="7.22"/>
      <rect class="cls-33" x="528.3" y="164.22" width="42.15" height="7.22"/>
      <rect class="cls-18" x="502.43" y="164.22" width="19.74" height="7.22"/>
      <rect class="cls-18" x="502.43" y="180.22" width="35.95" height="7.22"/>
      <rect class="cls-33" x="543.92" y="180.22" width="26.53" height="7.22"/>
      <rect class="cls-33" x="522.17" y="196.22" width="48.28" height="7.22"/>
      <rect class="cls-18" x="502.43" y="196.22" width="14.59" height="7.22"/>
      <rect class="cls-18" x="502.43" y="212.21" width="29.19" height="7.22"/>
      <rect class="cls-33" x="536.44" y="212.21" width="34.01" height="7.22"/>
      <g>
        <path class="cls-33" d="m568.44,254.84v2.03l-7.44,2.83v-1.95l5.21-1.89-5.21-1.91v-1.94l7.44,2.83Z"/>
        <path class="cls-33" d="m547.28,252.01v1.94l-5.21,1.91,5.21,1.89v1.95l-7.44-2.83v-2.03l7.44-2.83Z"/>
        <path class="cls-33" d="m556.08,246.53h2.33l-5.53,15.78h-2.33l5.53-15.78Z"/>
      </g>
      <g>
        <path class="cls-33" d="m534.26,115.92v2.66l-9.76,3.71v-2.56l6.83-2.48-6.83-2.5v-2.54l9.76,3.71Z"/>
        <path class="cls-33" d="m516.32,112.21v2.54l-6.83,2.5,6.83,2.48v2.56l-9.76-3.71v-2.66l9.76-3.71Z"/>
      </g>
    </g>
    <text class="cls-20" transform="translate(492.7 79.87)"><tspan x="0" y="0">HTML</tspan></text>
  </g>
  <g>
    <g>
      <path class="cls-49" d="m72.92,276.75c-1.88-1.84-4.05-3.34-6.41-4.42-.04-.02-.09-.04-.13-.06-3.32-1.5-6.98-2.22-10.68-2.01-2.53.13-5.08.7-7.54,1.74-.15.06-.31.13-.46.2-4.41,1.97-7.89,5.18-10.21,9.03-3.7,6.16-4.45,13.96-1.3,21.01,5.11,11.46,18.59,16.62,30.04,11.51,10.5-4.68,15.71-16.4,12.58-27.14-.28-.98-.64-1.95-1.07-2.9-1.2-2.68-2.85-5.02-4.83-6.96Zm-9.52,30.64c-7.95,3.54-17.3-.04-20.84-7.99-2.11-4.73-1.69-9.95.66-14.15.02-.03.03-.06.05-.1,1.6-2.82,4.09-5.18,7.27-6.6.6-.27,1.2-.49,1.82-.68.06-.02.13-.04.19-.06,3.16-.92,6.43-.81,9.41.19.01,0,.02,0,.04,0,2.55.86,4.88,2.36,6.72,4.41,1.08,1.19,1.98,2.57,2.67,4.12.43.96.75,1.94.97,2.93,1.64,7.19-1.97,14.8-8.96,17.92Z"/>
      <path class="cls-33" d="m66.51,272.33c2.35,1.08,4.53,2.57,6.41,4.42,1.98,1.94,3.63,4.28,4.83,6.96.43.95.78,1.92,1.07,2.9l-6.45,2.86c-.22-.99-.55-1.97-.97-2.93-.69-1.54-1.6-2.92-2.67-4.12-1.84-2.05-4.17-3.55-6.72-4.41h-.04s4.42-5.75,4.42-5.75"/>
      <line class="cls-33" x1="66.51" y1="272.33" x2="61.99" y2="278.01"/>
      <path class="cls-45" d="m61.99,278.01h-.04c-2.98-1-6.25-1.12-9.41-.2-.06.02-.13.04-.19.06l-4.19-5.88c2.46-1.03,5.01-1.6,7.54-1.74,3.7-.2,7.36.51,10.68,2.01"/>
    </g>
    <g>
      <line class="cls-10" x1="58.78" y1="315.72" x2="58.78" y2="317.72"/>
      <line class="cls-5" x1="58.78" y1="321.54" x2="58.78" y2="350.25"/>
      <polyline class="cls-10" points="58.78 352.16 58.78 354.16 60.78 354.16"/>
      <line class="cls-3" x1="64.9" y1="354.16" x2="120.46" y2="354.16"/>
      <polyline class="cls-10" points="122.52 354.16 124.52 354.16 124.52 352.16"/>
      <line class="cls-9" x1="124.52" y1="348.27" x2="124.52" y2="319.06"/>
      <line class="cls-10" x1="124.52" y1="317.11" x2="124.52" y2="315.11"/>
    </g>
    <g>
      <rect class="cls-46" x="100.53" y="83.3" width="192.85" height="229.92"/>
      <rect class="cls-49" x="100.53" y="72.1" width="192.85" height="29.18"/>
      <g>
        <path class="cls-33" d="m271.06,297.4v1.89l-6.93,2.64v-1.82l4.85-1.76-4.85-1.78v-1.81l6.93,2.64Z"/>
        <path class="cls-33" d="m251.34,294.76v1.81l-4.85,1.78,4.85,1.76v1.82l-6.93-2.64v-1.89l6.93-2.64Z"/>
        <text class="cls-23" transform="translate(254.91 302.8)"><tspan x="0" y="0">/</tspan></text>
      </g>
      <g>
        <path class="cls-33" d="m146.22,119.88v2.36l-8.65,3.29v-2.27l6.05-2.2-6.05-2.22v-2.25l8.65,3.29Z"/>
        <path class="cls-33" d="m130.32,116.59v2.25l-6.05,2.22,6.05,2.2v2.27l-8.65-3.29v-2.36l8.65-3.29Z"/>
      </g>
      <text class="cls-19" transform="translate(112.23 92.87)"><tspan x="0" y="0">WEB D</tspan><tspan class="cls-47" x="38.18" y="0">E</tspan><tspan x="45.12" y="0">VE</tspan><tspan class="cls-42" x="59.65" y="0">L</tspan><tspan x="65.65" y="0">OPING</tspan></text>
      <g>
        <g>
          <rect class="cls-50" x="133.87" y="139.55" width="56.69" height="10.38"/>
          <rect class="cls-33" x="198.54" y="139.55" width="28.34" height="10.38"/>
          <rect class="cls-18" x="233.41" y="139.55" width="39.04" height="10.38"/>
          <rect class="cls-50" x="133.87" y="158.09" width="26.46" height="10.38"/>
          <rect class="cls-33" x="167.52" y="158.09" width="45.19" height="10.38"/>
          <rect class="cls-18" x="220.08" y="158.09" width="52.37" height="10.38"/>
          <rect class="cls-50" x="133.87" y="176.62" width="34.83" height="10.38"/>
          <rect class="cls-33" x="174.36" y="176.62" width="65.51" height="10.38"/>
          <rect class="cls-18" x="246.89" y="176.62" width="25.56" height="10.38"/>
          <rect class="cls-50" x="133.87" y="195.16" width="43.91" height="10.38"/>
          <rect class="cls-33" x="184.26" y="195.16" width="42.62" height="10.38"/>
          <rect class="cls-18" x="233.41" y="195.16" width="39.04" height="10.38"/>
          <rect class="cls-50" x="133.87" y="213.69" width="19.26" height="10.38"/>
          <rect class="cls-33" x="159.6" y="213.69" width="38.16" height="10.38"/>
          <rect class="cls-18" x="203.7" y="213.69" width="68.75" height="10.38"/>
          <rect class="cls-50" x="133.87" y="232.22" width="55.07" height="10.38"/>
          <rect class="cls-33" x="195.78" y="232.22" width="16.93" height="10.38"/>
          <rect class="cls-18" x="220.08" y="232.22" width="52.37" height="10.38"/>
          <rect class="cls-50" x="133.87" y="250.76" width="71.71" height="10.38"/>
          <rect class="cls-33" x="211.62" y="250.76" width="29.34" height="10.38"/>
          <rect class="cls-18" x="246.89" y="250.76" width="25.56" height="10.38"/>
          <rect class="cls-50" x="133.87" y="269.29" width="21.96" height="10.38"/>
          <rect class="cls-33" x="162.21" y="269.29" width="26.73" height="10.38"/>
          <rect class="cls-18" x="195.78" y="269.29" width="76.67" height="10.38"/>
        </g>
        <rect class="cls-18" x="280.03" y="139.55" width="2.11" height="140.12"/>
        <circle class="cls-18" cx="116.04" cy="144.74" r="5.19"/>
        <circle class="cls-18" cx="116.04" cy="163.28" r="5.19"/>
        <circle class="cls-18" cx="116.04" cy="181.81" r="5.19"/>
        <circle class="cls-18" cx="116.04" cy="200.35" r="5.19"/>
        <circle class="cls-18" cx="116.04" cy="218.88" r="5.19"/>
        <circle class="cls-18" cx="116.04" cy="237.41" r="5.19"/>
        <circle class="cls-18" cx="116.04" cy="255.95" r="5.19"/>
        <circle class="cls-18" cx="116.04" cy="274.48" r="5.19"/>
      </g>
      <path class="cls-45" d="m284.79,88.3c0,2.92-2.37,5.29-5.29,5.29s-5.29-2.37-5.29-5.29,2.37-5.29,5.29-5.29,5.29,2.37,5.29,5.29Z"/>
    </g>
    <path class="cls-18" d="m271.7,88.19c0,2.95-2.39,5.33-5.33,5.33s-5.33-2.39-5.33-5.33,2.39-5.33,5.33-5.33,5.33,2.39,5.33,5.33Z"/>
  </g>
  <g>
    <rect class="cls-32" x="319.04" y="110.33" width="18.68" height="5.23"/>
    <rect class="cls-49" x="319.04" y="101.01" width="57.15" height="5.23"/>
    <g>
      <line class="cls-10" x1="352.06" y1="116.56" x2="352.06" y2="118.56"/>
      <line class="cls-7" x1="352.06" y1="121.94" x2="352.06" y2="133.76"/>
      <polyline class="cls-10" points="352.06 135.44 352.06 137.44 354.06 137.44"/>
      <line class="cls-1" x1="357.87" y1="137.44" x2="416.91" y2="137.44"/>
      <polyline class="cls-10" points="418.82 137.44 420.82 137.44 420.82 135.44"/>
      <line class="cls-13" x1="420.82" y1="131.39" x2="420.82" y2="125.3"/>
      <line class="cls-10" x1="420.82" y1="123.27" x2="420.82" y2="121.27"/>
    </g>
    <text class="cls-21" transform="translate(319.04 87.19)"><tspan x="0" y="0">CSS</tspan></text>
    <g>
      <path class="cls-49" d="m435.97,99.96c-.19-.68-.44-1.35-.74-2.01-.83-1.86-1.98-3.48-3.35-4.83-1.3-1.28-2.82-2.31-4.45-3.06-.03-.02-.06-.03-.09-.04-2.3-1.05-4.84-1.54-7.41-1.4-1.76.1-3.52.49-5.23,1.21-.1.05-.21.09-.32.14-3.06,1.37-5.47,3.59-7.08,6.26-2,3.32-2.75,7.32-1.97,11.23.22,1.13.58,2.25,1.06,3.34,3.54,7.95,12.9,11.53,20.84,7.98,4.85-2.16,8.07-6.48,9.05-11.33.49-2.43.41-5-.32-7.5Zm-10.69,14.41c-5.51,2.46-12-.03-14.46-5.54-.2-.45-.37-.91-.51-1.37-.85-2.89-.44-5.93.96-8.44,0-.02.02-.05.03-.07,1.11-1.96,2.83-3.59,5.04-4.58.42-.18.83-.34,1.26-.46.04-.02.08-.03.13-.04,2.19-.65,4.46-.56,6.53.12,0,0,.01,0,.02,0,1.77.6,3.39,1.64,4.66,3.06.75.83,1.37,1.78,1.85,2.86.3.67.52,1.35.68,2.03.42,1.86.34,3.75-.18,5.51-.87,2.98-2.99,5.56-6.04,6.92Z"/>
      <path class="cls-45" d="m436.29,107.45h-4.97c.52-1.76.6-3.66.18-5.51-.16-.68-.38-1.36-.68-2.03-.48-1.08-1.1-2.03-1.85-2.86-1.28-1.42-2.89-2.46-4.66-3.06,0,0-.01,0-.02,0-2.07-.69-4.34-.77-6.53-.12-.05,0-.09.02-.13.04-.43.12-.85.28-1.26.46-2.21.99-3.93,2.62-5.04,4.58-.01.02-.03.05-.03.07-1.41,2.5-1.82,5.55-.96,8.44h-4.97c-.78-3.91-.03-7.92,1.97-11.23,1.6-2.68,4.02-4.9,7.08-6.26.1-.05.21-.09.32-.14,1.71-.71,3.48-1.11,5.23-1.21,2.57-.14,5.11.35,7.41,1.4.03,0,.06.02.09.04,1.63.75,3.14,1.78,4.45,3.06,1.37,1.35,2.52,2.97,3.35,4.83.29.66.54,1.33.74,2.01.73,2.5.81,5.06.32,7.5Z"/>
    </g>
    <rect class="cls-49" x="341.47" y="110.33" width="34.73" height="5.23"/>
  </g>
  <g>
    <text class="cls-38" transform="translate(48.66 94.37)"><tspan x="0" y="0">{ }</tspan></text>
    <g>
      <rect class="cls-18" x="48.51" y="123.95" width="20.54" height="9.8"/>
      <rect class="cls-18" x="48.51" y="141.07" width="20.54" height="9.8"/>
      <rect class="cls-33" x="48.51" y="158.2" width="20.54" height="9.8"/>
      <rect class="cls-33" x="48.51" y="175.32" width="20.54" height="9.8"/>
      <rect class="cls-33" x="48.51" y="192.44" width="20.54" height="9.8"/>
      <rect class="cls-33" x="48.51" y="209.57" width="20.54" height="9.8"/>
      <rect class="cls-33" x="48.51" y="226.69" width="20.54" height="9.8"/>
    </g>
  </g>
  <g>
    <path class="cls-36" d="m649.49,316.69c0-.07,0-.13,0-.2s0-.13,0-.2c1.02-.47,2.06-1.01,3.07-1.67,1.09-.75,2.19-1.61,3.21-2.6l-.22-.87c-.21-.99-.6-1.94-.94-2.89-.2-.46-.43-.92-.65-1.37-.2-.47-.45-.91-.73-1.34l-.46-.77c-1.4,0-2.81.19-4.1.43-1.17.24-2.3.59-3.35.99l-.28-.28c.39-1.06.75-2.18.98-3.35.25-1.29.43-2.71.44-4.1l-.77-.46c-.43-.28-.87-.52-1.33-.73-.45-.22-.91-.45-1.38-.65-.95-.35-1.9-.73-2.88-.94l-.87-.22c-.99,1.02-1.85,2.12-2.6,3.21-.66,1.01-1.2,2.04-1.67,3.07-.06,0-.13-.02-.2-.02-.07,0-.13.02-.2.02-.46-1.03-1.01-2.06-1.67-3.07-.74-1.09-1.61-2.19-2.59-3.21l-.87.22c-1,.21-1.94.6-2.89.94-.46.2-.92.43-1.38.65-.46.2-.9.45-1.33.73l-.77.46c.02,1.4.2,2.81.44,4.1.24,1.17.59,2.29.99,3.35-.1.1-.2.19-.28.28-1.06-.4-2.18-.75-3.35-.99-1.29-.24-2.71-.42-4.1-.43l-.47.77c-.27.43-.52.86-.73,1.34-.21.45-.44.91-.64,1.37-.36.95-.73,1.9-.94,2.89l-.22.87c1.02.99,2.12,1.85,3.21,2.6,1.01.66,2.04,1.2,3.06,1.67,0,.06,0,.12,0,.2s0,.13,0,.2c-1.02.46-2.06,1.01-3.06,1.67-1.09.74-2.19,1.61-3.21,2.59l.22.87c.21.99.59,1.94.94,2.89.2.46.43.92.64,1.38.21.46.46.9.73,1.33l.47.77c1.39,0,2.81-.19,4.1-.43,1.17-.24,2.29-.59,3.35-.99.09.1.19.2.28.28-.4,1.06-.75,2.18-.99,3.35-.24,1.29-.42,2.71-.44,4.1l.77.47c.44.27.87.52,1.33.72.46.22.92.45,1.38.65.95.36,1.9.73,2.89.94l.87.22c.98-1.02,1.85-2.12,2.59-3.21.66-1.01,1.21-2.04,1.67-3.07.07,0,.13.02.2.02.06,0,.13,0,.2-.02.47,1.03,1.01,2.06,1.67,3.07.75,1.09,1.61,2.19,2.6,3.21l.87-.22c.99-.21,1.93-.59,2.88-.94.47-.2.93-.43,1.38-.65.46-.2.91-.45,1.33-.72l.77-.47c0-1.39-.19-2.81-.44-4.1-.23-1.17-.59-2.29-.98-3.35.1-.09.19-.19.28-.28,1.05.4,2.18.75,3.35.99,1.29.24,2.71.42,4.1.43l.46-.77c.28-.43.52-.86.73-1.33.22-.46.45-.92.65-1.38.35-.95.73-1.9.94-2.89l.22-.87c-1.02-.98-2.13-1.85-3.21-2.59-1.01-.66-2.05-1.21-3.07-1.67Zm-14.75,6.85c-3.9,0-7.06-3.16-7.06-7.06s3.16-7.06,7.06-7.06,7.06,3.16,7.06,7.06-3.16,7.06-7.06,7.06Z"/>
    <g>
      <g>
        <rect class="cls-45" x="575.32" y="290.48" width="9.32" height="41.97"/>
        <rect class="cls-49" x="561.58" y="308.97" width="9.99" height="23.48"/>
        <rect class="cls-40" x="547.74" y="316.48" width="9.99" height="15.96"/>
      </g>
      <g>
        <line class="cls-10" x1="545.97" y1="325.76" x2="543.97" y2="325.76"/>
        <line class="cls-16" x1="538.9" y1="325.76" x2="531.3" y2="325.76"/>
        <polyline class="cls-10" points="528.76 325.76 526.76 325.76 526.76 327.76"/>
        <line class="cls-11" x1="526.76" y1="331.5" x2="526.76" y2="359.56"/>
        <polyline class="cls-10" points="526.76 361.43 526.76 363.43 528.76 363.43"/>
        <line class="cls-15" x1="532.16" y1="363.43" x2="544.04" y2="363.43"/>
        <line class="cls-10" x1="545.74" y1="363.43" x2="547.74" y2="363.43"/>
      </g>
      <g>
        <rect class="cls-18" x="550.9" y="361.56" width="26.43" height="4.72"/>
        <rect class="cls-18" x="550.9" y="370.3" width="18.28" height="4.72"/>
        <rect class="cls-18" x="550.9" y="379.04" width="23.14" height="4.72"/>
        <rect class="cls-33" x="578.83" y="379.04" width="5.4" height="4.72"/>
        <rect class="cls-33" x="589.18" y="379.04" width="19.87" height="4.72"/>
        <rect class="cls-33" x="575.04" y="370.3" width="34.01" height="4.72"/>
        <rect class="cls-33" x="582.63" y="361.56" width="26.43" height="4.72"/>
      </g>
    </g>
    <g>
      <rect class="cls-45" x="682.28" y="313.92" width="17.41" height="8.31"/>
      <rect class="cls-45" x="682.28" y="328.44" width="17.41" height="8.31"/>
      <rect class="cls-45" x="682.28" y="342.96" width="17.41" height="8.31"/>
      <rect class="cls-45" x="682.28" y="357.48" width="17.41" height="8.31"/>
      <rect class="cls-18" x="682.28" y="372" width="17.41" height="8.31"/>
      <rect class="cls-18" x="682.28" y="386.52" width="17.41" height="8.31"/>
      <rect class="cls-18" x="682.28" y="401.04" width="17.41" height="8.31"/>
    </g>
  </g>
  <g>
    <g>
      <path class="cls-34" d="m623.77,433.16c-6.51.49-11.96-1.06-16.51-3.88-18.37-11.37-22.2-43.43-22.47-45.84.16.74,1.97,4.66,21.07,17.5,1.59,1.07,3.04,2.16,4.37,3.26,0,0,.02.02.07.05,16.64,13.78,13.47,28.9,13.47,28.9Z"/>
      <path class="cls-2" d="m584.78,383.3s17.15,42.09,36.18,46.53"/>
      <path class="cls-31" d="m623.77,433.16c-6.51.49-11.96-1.06-16.51-3.88,3.66-8.65,2.97-25.07,2.97-25.07,0,0,.02.02.07.05,16.64,13.78,13.47,28.9,13.47,28.9Z"/>
    </g>
    <g>
      <path class="cls-34" d="m672.53,385.79c-.07.45-.33,2-.84,4.29h0c-2.71,12.14-12.49,44.8-38.81,41.53,0,0-.44-2.8.44-7,1.3-6.16,5.49-15.34,18.22-23.04,18.89-11.42,20.8-15.09,20.99-15.79Z"/>
      <path class="cls-2" d="m671.68,388.38s-13.51,35-36.94,42.13"/>
      <path class="cls-31" d="m671.68,390.08h0c-2.71,12.14-12.49,44.8-38.81,41.53,0,0-.44-2.8.44-7h.03c21.9,1.17,38.34-34.54,38.34-34.54Z"/>
    </g>
    <g>
      <path class="cls-51" d="m631.46,432.78c-.65,1.13-10.26-2.86-14.59-14.42h0c-2.6-6.94-3.29-16.61,1-29.54,11.29-33.94,6.64-40.34,6.5-40.52.23.11,10.04,4.98,16.36,16.83,0,0,0,.02.03.05,6.96,13.07,9.67,34.61-9.29,67.6Z"/>
      <path class="cls-12" d="m624.36,348.3s14.72,18.57,9.11,53.89c-5.6,35.32-2.01,30.58-2.01,30.58"/>
      <path class="cls-29" d="m631.46,432.78c-.65,1.13-10.26-2.86-14.59-14.42,24.23,6.88,23.86-53.22,23.86-53.22,0,0,0,.02.03.05,6.96,13.07,9.67,34.61-9.29,67.6Z"/>
    </g>
    <path class="cls-34" d="m584.77,383.3s0,.04.01.12c-.02-.08-.01-.12-.01-.12Z"/>
    <path class="cls-33" d="m650.09,432.27v27.13c0,7.94-6.43,14.37-14.37,14.37h-12.76c-5.2,0-9.75-2.76-12.27-6.89h0c-1.33-2.18-2.09-4.74-2.09-7.48v-27.13h41.5Z"/>
    <rect class="cls-33" x="606.02" y="428.75" width="46.63" height="3.52" rx="1.06" ry="1.06"/>
    <path class="cls-43" d="m650.09,432.27v27.13c0,7.94-6.43,14.37-14.37,14.37h-12.76c-5.2,0-9.75-2.76-12.27-6.89,30.39,9.55,36.99-12.8,35.82-21.67-1.17-8.86-12.12-12.94-12.12-12.94h15.7Z"/>
  </g>
</svg>