<?xml version="1.0" encoding="UTF-8"?>
<svg id="Layer_1" data-name="Layer 1" xmlns="http://www.w3.org/2000/svg" viewBox="0 0 612 792">
  <defs>
    <style>
      .cls-1 {
        fill: #fff;
      }

      .cls-2 {
        fill: #323232;
      }

      .cls-3 {
        fill: #313131;
      }
    </style>
  </defs>
  <path class="cls-3" d="m242.7,357.43c-.76-.36-1.62-.59-2.26-1.11-.72-.58-1.39-1.32-1.83-2.13-2.1-3.93-5.53-4.54-9.53-4.15-1.5.15-2.22.53-2.11,2.1.08,1.11.12,2.24-.04,3.33-.09.61-.64,1.14-.98,1.71-.3-.6-.86-1.21-.86-1.81-.07-5.04-.02-10.09-.05-15.13,0-1.27.41-1.86,1.77-1.85,4.61.05,9.23.02,13.84.03.42,0,.91,0,1.25.21,3.32,2.05,1.82,5.35,1.94,8.16.09,2.12-1.26,3.24-3.43,3.29-.65.02-1.29.13-2.42.25,1.88,2.33,3.5,4.34,5.12,6.36-.14.24-.28.48-.42.73Zm-8.17-9.28h0c.77.01,1.54.01,2.31.01q5.56,0,5.17-5.58c0-.09,0-.17,0-.26.01-1.38-.66-2.01-2.06-1.99-2.57.03-5.14-.03-7.7,0-5.71.09-5.26-1.11-5.25,5.69,0,.09-.03.21.01.25.62.63,1.19,1.68,1.89,1.78,1.85.25,3.76.09,5.64.09Z"/>
  <path class="cls-3" d="m178.05,338.79c2.05-.78,3.22-.19,4.31,1.2,2.05,2.59,4.26,5.06,6.59,7.81,2.35-2.77,4.41-5.39,6.69-7.79.76-.8,2.11-1.05,3.19-1.54.3.96.84,1.91.86,2.88.09,4.61.08,9.23,0,13.85-.01.67-.62,1.33-.95,2-.32-.68-.89-1.35-.91-2.03-.09-3.76-.04-7.52-.05-11.28,0-.81-.1-1.63-.2-3.14-3.14,3.66-5.84,6.79-8.67,10.09-2.82-3.33-5.51-6.5-8.2-9.67-.23.06-.47.11-.7.17,0,1.3,0,2.6,0,3.89,0,3.51.03,7.01-.05,10.51-.01.5-.58.99-.89,1.49-.34-.48-.97-.96-.98-1.45-.07-5.63-.04-11.26-.04-16.97Z"/>
  <path class="cls-3" d="m342.14,350.48c1.85,2.26,3.46,4.23,5.06,6.19l-.22.65c-.8-.28-1.72-.41-2.37-.89-.74-.54-1.39-1.32-1.83-2.13-2.16-3.99-5.65-4.66-9.76-4.25-1.53.15-2.18.58-2.08,2.12.08,1.19.07,2.4-.03,3.59-.04.53-.42,1.04-.64,1.56l-.74-.12c-.11-.68-.32-1.37-.33-2.05-.03-4.79.04-9.59-.04-14.38-.03-1.72.44-2.45,2.3-2.4,4.19.12,8.39,0,12.58.05,2.88.03,3.81,1,3.88,3.87.01.51,0,1.03,0,1.54q0,5.57-5.79,6.64Zm-3.6-2.32h0c.68.01,1.36.01,2.04.01,5.83,0,5.79,0,5.44-5.74-.09-1.54-.7-2.12-2.19-2.09-2.55.05-5.11,0-7.66,0-5.58,0-5.69.12-5.2,5.73,0,.08-.03.21.02.25.64.62,1.23,1.66,1.94,1.75,1.84.25,3.73.08,5.61.08Z"/>
  <path class="cls-3" d="m351.15,348.46c0-2.14-.04-4.28.01-6.42.07-2.62,1-3.59,3.57-3.62,3.85-.05,7.7-.05,11.55,0,2.56.03,3.67,1.05,3.72,3.53.08,4.45.06,8.9-.02,13.35-.01.63-.55,1.25-.85,1.87-.34-.65-.94-1.29-.97-1.96-.27-4.98-.23-4.98-5.12-4.98-2.48,0-4.97.11-7.44-.03-1.97-.11-2.92.46-2.66,2.57.12.93.12,1.9-.02,2.82-.09.56-.54,1.06-.83,1.59-.31-.51-.87-1-.89-1.52-.1-2.39-.04-4.79-.04-7.19Zm9.3-.18c.77,0,1.54,0,2.3,0,5.92,0,5.92-.04,5.37-5.96-.14-1.5-.82-2.15-2.25-2.15-2.39,0-4.78-.01-7.17-.01q-6.07,0-5.74,6.09c0,.09-.03.21.01.25.61.6,1.17,1.61,1.85,1.7,1.85.24,3.74.08,5.62.09Z"/>
  <path class="cls-3" d="m294.02,338.41c1.97,0,3.95-.14,5.9.06,1.01.1,2.08.65,2.87,1.31.37.31.15,1.34.19,2.04-.53-.24-1.07-.49-1.6-.72-.75-.32-1.49-.87-2.25-.89-3.42-.1-6.85,0-10.27-.06-2.72-.05-2.34,1.84-2.4,3.55-.05,1.77,0,3.26,2.46,3.19,3.59-.11,7.19,0,10.78-.03,2.44-.03,3.66,1.13,3.72,3.55.02.86.03,1.71.01,2.57-.07,3.24-.94,4.21-4.1,4.27-3.68.07-7.37.18-11.03-.09-1.22-.09-2.39-1.23-3.49-2.02-.18-.13.09-.9.14-1.37.45.08.93.1,1.36.25,1.19.42,2.34,1.21,3.54,1.29,3.07.19,6.16,0,9.24.08,2.94.08,2.35-1.99,2.45-3.72.1-1.79-.23-2.97-2.46-2.89-3.51.12-7.02.07-10.53.02-2.98-.05-3.94-1.07-3.99-4.08-.02-1.03-.04-2.06.02-3.08.12-2.03,1.19-3.16,3.26-3.18,2.05-.03,4.11,0,6.16,0Z"/>
  <path class="cls-3" d="m220.63,357.32c-.24-.5-.63-.99-.69-1.51-.11-1.01-.12-2.05-.03-3.07.17-1.83-.42-2.63-2.41-2.55-3.5.14-7.01.12-10.51,0-1.81-.06-2.46.61-2.33,2.38.11,1.49.02,3,.02,4.5-.27.08-.54.16-.81.24-.31-.51-.88-1.01-.89-1.52-.07-4.78-.08-9.57-.01-14.36.03-1.94,1.19-2.99,3.11-3.01,4.19-.04,8.38-.16,12.55.1,1.02.06,2.77,1.42,2.81,2.24.25,5.42.13,10.86.13,16.3-.32.09-.63.17-.95.26Zm-8.37-9.04c.77,0,1.54,0,2.31,0,5.85,0,6.05-.16,5.24-5.99-.11-.78-1.24-1.98-1.95-2.02-3.66-.21-7.35-.17-11.02-.03-.71.03-1.93.89-1.98,1.46-.18,2.01-.37,4.22.33,6,.26.68,2.93.44,4.51.57.85.07,1.71.01,2.56.01Z"/>
  <path class="cls-3" d="m254.97,338.03c1.07.61,2.37,1,3.17,1.86,2.27,2.42,4.34,5.03,6.56,7.65,4-2.55,5.29-8.15,10.92-9.54,0,6.48.02,12.27-.05,18.06,0,.38-.66.74-1.01,1.12-.27-.46-.75-.92-.76-1.39-.07-3.85-.04-7.69-.05-11.54,0-.91,0-1.83,0-2.74-.21-.09-.43-.19-.64-.28-2.66,3.12-5.32,6.24-8.17,9.57-2.86-3.34-5.56-6.49-8.69-10.15-.12,1.3-.24,1.98-.25,2.67-.02,4.1.02,8.21-.05,12.31,0,.53-.54,1.04-.83,1.57-.3-.43-.87-.86-.87-1.29-.06-5.71-.04-11.42-.04-17.13.25-.25.5-.5.75-.74Z"/>
  <path class="cls-3" d="m152.39,338.92c-2.01,2.41-3.96,4.87-6.05,7.21-1.05,1.18-1.13,2.06-.03,3.27,2.11,2.34,4.08,4.82,6.1,7.24l-.27.69c-.83-.35-1.85-.5-2.45-1.08-1.28-1.24-2.57-2.57-3.47-4.1-2.11-3.57-5.21-3.9-9.24-3.03,0,2,.08,4.11-.05,6.2-.04.65-.68,1.25-1.05,1.88-.34-.66-.96-1.31-.97-1.97-.08-4.95-.08-9.91,0-14.87.01-.63.7-1.24,1.08-1.87.33.58.87,1.14.94,1.75.15,1.35.16,2.74.03,4.09-.2,2.09.75,2.48,2.67,2.61,2.68.18,4.54-.64,6.04-2.85,1.09-1.62,2.43-3.09,3.79-4.5.62-.64,1.55-.97,2.34-1.44.2.26.4.52.6.78Z"/>
  <path class="cls-3" d="m156.13,346.86c0-2.14-.08-4.29.05-6.42.04-.66.67-1.28,1.02-1.92.29.62.81,1.24.82,1.87.08,4.02.15,8.05,0,12.07-.08,2.3.82,3.01,3.01,2.92,3.16-.13,6.33-.09,9.5-.01,1.88.05,2.61-.71,2.58-2.58-.07-4.11-.06-8.22.03-12.32.01-.66.63-1.31.96-1.96.31.68.87,1.36.89,2.05.08,4.11.08,8.22.03,12.33-.04,3.44-.88,4.31-4.25,4.37-3.51.06-7.02.07-10.53,0-3.2-.07-4.08-1.02-4.12-4.21-.03-2.05,0-4.11,0-6.16Z"/>
  <path class="cls-3" d="m325.95,347.9c0,2.39.07,4.79-.04,7.18-.03.71-.54,1.4-.83,2.11-.34-.74-.89-1.45-.98-2.22-.16-1.44-.09-2.9-.04-4.36.04-1.3-.47-1.85-1.8-1.84-4.02.04-8.04.05-12.05,0-1.39-.02-1.78.63-1.75,1.87.04,1.79.06,3.59-.06,5.38-.03.4-.63.77-.97,1.15-.28-.37-.79-.73-.79-1.1-.05-5.47-.05-10.94.01-16.42,0-.38.65-.76,1-1.14.27.46.74.9.77,1.37.1,1.62.11,3.25.03,4.87-.07,1.5.45,2.16,2.05,2.13,3.85-.08,7.69-.08,11.54,0,1.62.03,2.09-.68,2.03-2.16-.06-1.54-.08-3.08.04-4.61.04-.55.54-1.07.83-1.6.34.56.94,1.12.97,1.69.11,2.56.05,5.13.05,7.69Z"/>
  <path class="cls-3" d="m280.69,347.88c0,2.56.05,5.11-.04,7.66-.02.55-.49,1.09-.76,1.63-.32-.48-.93-.96-.93-1.45-.07-5.28-.06-10.56,0-15.84,0-.46.5-.91.76-1.37.32.48.9.96.92,1.45.09,2.64.04,5.28.05,7.92Z"/>
  <path class="cls-2" d="m251.44,362.81c.92-.56,1.86-1.13,3-1.82,15.53,24.49,37.9,37.31,66.73,37.29,21.76-.02,40.56-8.47,55.51-24.5,29.17-31.28,26.97-80.9-4.8-109.2-17.93-15.97-39.06-22.41-62.71-18.89-23.61,3.51-41.95,15.76-54.64,36.29-1.11-.62-2.06-1.15-3.01-1.68,12.25-23.74,44.79-43.22,78.31-38.9,41.77,5.39,68.28,39,70.88,73.53,3.13,41.53-24.86,75.55-60.33,84.64-37.93,9.73-74.73-10.41-88.94-36.76Z"/>
  <path class="cls-2" d="m134.98,333.92v-48.89c.96-.06,1.79-.15,2.62-.15,12.49,0,24.99-.02,37.48,0,6.26,0,9.35,3.06,9.4,9.26.03,4.19.05,8.39,0,12.58-.08,5.65-3.33,8.87-8.99,8.96-2.02.03-4.05,0-6.93,0,2.92,3.51,5.34,6.42,7.77,9.33,2.39,2.86,4.8,5.72,7.48,8.92-3.78.35-6.78.92-9.29-2.51-3.63-4.96-7.81-9.53-11.85-14.18-.64-.74-1.79-1.46-2.72-1.48-6.4-.13-12.81-.07-19.51-.07v18.23h-5.47Zm24.8-43.79c-5.22,0-10.44-.02-15.66,0-2.78.02-3.71.93-3.73,3.69-.04,4.19-.03,8.39,0,12.58.02,2.92.92,3.84,3.85,3.85,10.36.02,20.71.02,31.07,0,2.81,0,3.67-.88,3.69-3.7.04-4.19.04-8.39,0-12.58-.02-3.02-.82-3.82-3.81-3.83-5.14-.03-10.27,0-15.41,0Z"/>
  <path class="cls-2" d="m191.87,309.19c0-5.22-.04-10.44.01-15.66.05-5.34,3.29-8.73,8.61-8.77,10.78-.08,21.55-.08,32.33,0,5.13.04,8.35,3.21,8.41,8.38.12,10.86.12,21.73,0,32.59-.05,5.13-3.31,8.34-8.42,8.39-10.78.09-21.55.09-32.33,0-5.32-.04-8.55-3.43-8.6-8.78-.05-5.39-.01-10.78-.01-16.17Zm5.38.22c0,5.22-.03,10.44.01,15.66.02,2.85.86,3.67,3.7,3.68,10.44.02,20.87.02,31.31,0,2.76,0,3.67-.91,3.68-3.73.03-10.35.03-20.7,0-31.06,0-2.94-.92-3.82-3.86-3.83-10.35-.02-20.7-.02-31.05,0-2.95,0-3.76.85-3.78,3.87-.03,5.13,0,10.27,0,15.4Z"/>
  <path class="cls-2" d="m249.45,284.91h5.07c0,6.23,0,12.29,0,18.35q0,3.41,3.31,3.42c11.21,0,22.42-.07,33.63.02,2.29.02,3.14-.53,3.07-2.99-.17-6.15-.06-12.31-.06-18.72h5.24v48.82c-.35.12-.65.3-.96.32q-4.28.32-4.28-3.89c0-5.31-.06-10.61,0-15.92.02-1.65-.52-2.26-2.21-2.25-11.81.05-23.62.06-35.42,0-1.8,0-2.37.61-2.35,2.38.08,5.56.03,11.13.03,16.69,0,.91,0,1.82,0,2.89h-5.07v-49.11Z"/>
  <path class="cls-2" d="m320.68,290.01v-5.32c1.54,0,2.97,0,4.39,0,13.95.01,27.89.02,41.84.04,3.26,0,3.32.16,3.28,3.26-.02,1.73-.76,2.18-2.35,2.16-5.73-.06-11.47.07-17.2-.07-2.18-.05-2.74.71-2.73,2.79.08,12.32.04,24.65.04,36.97q0,4.79-5.16,4.04c-.04-.93-.13-1.92-.13-2.91,0-12.67-.06-25.33.04-38,.02-2.25-.59-2.96-2.88-2.9-5.47.16-10.95.06-16.43.05-.84,0-1.67-.07-2.73-.12Z"/>
  <path class="cls-2" d="m307.92,309.34c0-7.44.1-14.89-.06-22.33-.05-2.46,1.29-2.24,2.9-2.32,1.79-.09,2.59.33,2.57,2.38-.09,14.89-.11,29.78-.02,44.66.01,2.23-.94,2.46-2.76,2.48-1.9.02-2.74-.38-2.7-2.55.13-7.44.05-14.89.05-22.33Z"/>
  <path class="cls-1" d="m234.53,348.15c-1.88,0-3.79.17-5.64-.09-.7-.09-1.27-1.15-1.89-1.78-.04-.04-.01-.17-.01-.25-.01-6.8-.46-5.6,5.25-5.69,2.57-.04,5.14.02,7.7,0,1.4-.02,2.07.61,2.06,1.99,0,.09,0,.17,0,.26q.39,5.58-5.17,5.58c-.77,0-1.54,0-2.31,0h0Z"/>
  <path class="cls-1" d="m338.54,348.15c-1.87,0-3.77.17-5.61-.08-.72-.1-1.31-1.13-1.94-1.75-.04-.04,0-.16-.02-.25-.49-5.61-.38-5.73,5.2-5.73,2.55,0,5.11.04,7.66,0,1.49-.03,2.09.56,2.19,2.09.35,5.75.39,5.74-5.44,5.74-.68,0-1.36,0-2.04,0h0Z"/>
  <path class="cls-1" d="m360.44,348.27c-1.88,0-3.77.16-5.62-.08-.68-.09-1.25-1.1-1.85-1.7-.04-.04,0-.17-.01-.25q-.33-6.09,5.74-6.09c2.39,0,4.78,0,7.17.01,1.44,0,2.11.65,2.25,2.15.55,5.92.55,5.96-5.37,5.96-.77,0-1.54,0-2.3,0Z"/>
  <path class="cls-1" d="m212.26,348.28c-.85,0-1.71.05-2.56-.01-1.58-.12-4.24.11-4.51-.57-.7-1.79-.51-3.99-.33-6,.05-.56,1.27-1.43,1.98-1.46,3.67-.15,7.36-.18,11.02.03.71.04,1.84,1.24,1.95,2.02.81,5.83.61,5.99-5.24,5.99-.77,0-1.54,0-2.31,0Z"/>
</svg>