<svg fill="#ffffff" version="1.1" id="Layer_1" xmlns="http://www.w3.org/2000/svg" xmlns:xlink="http://www.w3.org/1999/xlink" viewBox="0 0 512 512" xml:space="preserve"><g id="SVGRepo_bgCarrier" stroke-width="0"></g><g id="SVGRepo_tracerCarrier" stroke-linecap="round" stroke-linejoin="round"></g><g id="SVGRepo_iconCarrier"> <g> <g> <path d="M47.063,140.782c-17.259,0-33.258-3.811-46.701-11.071v252.929h93.401v-253C82.658,135.683,67.307,140.782,47.063,140.782 z"></path> </g> </g> <g> <g> <path d="M47.063,32.875L6.847,97.614c6.212,5.199,18.895,12.751,40.216,12.751c21.319,0,34.003-7.551,40.216-12.751L47.063,32.875 z"></path> </g> </g> <g> <g> <rect x="0.362" y="413.056" width="93.401" height="52.453"></rect> </g> </g> <g> <g> <path d="M485.81,271.208v-30.417h25.828c-1.026-10.735-3.136-21.157-6.201-31.167l-23.83,9.871l-11.64-28.102l23.8-9.859 c-5.016-9.394-10.952-18.224-17.683-26.376l-18.205,18.205l-21.508-21.508l18.205-18.205c-8.152-6.73-16.982-12.667-26.376-17.683 L418.33,139.8l-28.102-11.64l9.884-23.86c-10.008-3.066-20.43-5.176-31.165-6.202V59.617h-92.679v392.766h92.678l0.001-38.48 c10.735-1.026,21.157-3.136,31.166-6.202l-9.884-23.86l28.103-11.64l9.871,23.832c9.394-5.016,18.224-10.952,26.376-17.683 l-18.205-18.205l21.508-21.508l18.205,18.205c6.73-8.152,12.667-16.982,17.683-26.376l-23.8-9.859l11.64-28.102l23.83,9.871 c3.066-10.009,5.175-20.431,6.201-31.167H485.81V271.208z M367.517,321.957V190.043c30.564,6.376,53.592,33.528,53.592,65.958 C421.109,288.43,398.081,315.581,367.517,321.957z"></path> </g> </g> <g> <g> <polygon points="116.12,0 116.12,53.508 202.251,53.508 202.251,83.925 116.12,83.925 116.12,107.018 185.015,107.018 185.015,137.435 116.12,137.435 116.12,160.527 202.251,160.527 202.251,190.944 116.12,190.944 116.12,214.037 185.015,214.037 185.015,244.454 116.12,244.454 116.12,267.546 202.251,267.546 202.251,297.963 116.12,297.963 116.12,321.055 185.015,321.055 185.015,351.472 116.12,351.472 116.12,374.565 202.251,374.565 202.251,404.982 116.12,404.982 116.12,428.074 185.015,428.074 185.015,458.491 116.12,458.491 116.12,512 253.909,512 253.909,0 "></polygon> </g> </g> </g></svg>