<?xml version="1.0" encoding="UTF-8"?>
<svg id="_Ñëîé_1" data-name="Ñëîé 1" xmlns="http://www.w3.org/2000/svg" xmlns:xlink="http://www.w3.org/1999/xlink" viewBox="0 0 475.1083 394.2548">
  <defs>
    <style>
      .cls-1 {
        fill: url(#_Áåçûìÿííûé_ãðàäèåíò_33-4);
      }

      .cls-2 {
        fill: url(#_Áåçûìÿííûé_ãðàäèåíò_33-5);
      }

      .cls-3 {
        fill: url(#_Áåçûìÿííûé_ãðàäèåíò_109);
      }

      .cls-4, .cls-5 {
        fill: #fff;
      }

      .cls-6 {
        fill: url(#_Áåçûìÿííûé_ãðàäèåíò_483-2);
      }

      .cls-7 {
        fill: #020230;
        opacity: .6;
      }

      .cls-8, .cls-5, .cls-9 {
        opacity: .5;
      }

      .cls-10 {
        fill: url(#_Áåçûìÿííûé_ãðàäèåíò_33-2);
      }

      .cls-11 {
        fill: url(#_Áåçûìÿííûé_ãðàäèåíò_193);
      }

      .cls-12, .cls-13 {
        opacity: .4;
      }

      .cls-12, .cls-14, .cls-9 {
        fill: #06033e;
      }

      .cls-15 {
        fill: #f8359e;
      }

      .cls-16 {
        fill: url(#_Áåçûìÿííûé_ãðàäèåíò_441);
      }

      .cls-17 {
        fill: url(#_Áåçûìÿííûé_ãðàäèåíò_343);
      }

      .cls-18 {
        fill: url(#_Áåçûìÿííûé_ãðàäèåíò_33);
      }

      .cls-19 {
        fill: url(#_Áåçûìÿííûé_ãðàäèåíò_343-2);
      }

      .cls-20 {
        fill: url(#_Áåçûìÿííûé_ãðàäèåíò_144);
      }

      .cls-21 {
        fill: url(#_Áåçûìÿííûé_ãðàäèåíò_193-2);
      }

      .cls-22 {
        fill: #0c0a78;
      }

      .cls-23 {
        fill: url(#_Áåçûìÿííûé_ãðàäèåíò_199);
      }

      .cls-24 {
        fill: url(#_Áåçûìÿííûé_ãðàäèåíò_113);
      }

      .cls-25 {
        fill: #e8975b;
      }

      .cls-26 {
        fill: url(#_Áåçûìÿííûé_ãðàäèåíò_483);
      }

      .cls-27 {
        fill: url(#_Áåçûìÿííûé_ãðàäèåíò_343-3);
      }

      .cls-28 {
        fill: url(#_Áåçûìÿííûé_ãðàäèåíò_223);
      }

      .cls-29 {
        fill: url(#_Áåçûìÿííûé_ãðàäèåíò_33-3);
      }
    </style>
    <linearGradient id="_Áåçûìÿííûé_ãðàäèåíò_33" data-name="Áåçûìÿííûé ãðàäèåíò 33" x1="425.4603" y1="306.9162" x2="458.0716" y2="306.9162" gradientUnits="userSpaceOnUse">
      <stop offset="0" stop-color="#e39a65"/>
      <stop offset="1" stop-color="#e95f8d"/>
    </linearGradient>
    <linearGradient id="_Áåçûìÿííûé_ãðàäèåíò_33-2" data-name="Áåçûìÿííûé ãðàäèåíò 33" x1="380.8089" y1="262.223" x2="435.5873" y2="262.223" xlink:href="#_Áåçûìÿííûé_ãðàäèåíò_33"/>
    <linearGradient id="_Áåçûìÿííûé_ãðàäèåíò_33-3" data-name="Áåçûìÿííûé ãðàäèåíò 33" x1="19.5863" y1="280.5753" x2="74.3646" y2="280.5753" xlink:href="#_Áåçûìÿííûé_ãðàäèåíò_33"/>
    <linearGradient id="_Áåçûìÿííûé_ãðàäèåíò_33-4" data-name="Áåçûìÿííûé ãðàäèåíò 33" x1="83.3607" y1="277.0616" x2="375.7191" y2="277.0616" xlink:href="#_Áåçûìÿííûé_ãðàäèåíò_33"/>
    <radialGradient id="_Áåçûìÿííûé_ãðàäèåíò_113" data-name="Áåçûìÿííûé ãðàäèåíò 113" cx="244.8471" cy="60.6072" fx="244.8471" fy="60.6072" r="223.2961" gradientUnits="userSpaceOnUse">
      <stop offset="0" stop-color="#e39a65"/>
      <stop offset=".4742" stop-color="#a92ffb"/>
      <stop offset=".5947" stop-color="#881bfa"/>
      <stop offset=".7421" stop-color="#6507fa"/>
      <stop offset=".8016" stop-color="#0d0c6f"/>
    </radialGradient>
    <radialGradient id="_Áåçûìÿííûé_ãðàäèåíò_109" data-name="Áåçûìÿííûé ãðàäèåíò 109" cx="108.2745" cy="239.9302" fx="108.2745" fy="239.9302" r="244.1723" gradientUnits="userSpaceOnUse">
      <stop offset="0" stop-color="#e39a65"/>
      <stop offset=".4742" stop-color="#a92ffb"/>
      <stop offset=".5679" stop-color="#881bfa"/>
      <stop offset=".6825" stop-color="#6507fa"/>
      <stop offset=".7381" stop-color="#0d0c6f"/>
    </radialGradient>
    <radialGradient id="_Áåçûìÿííûé_ãðàäèåíò_343" data-name="Áåçûìÿííûé ãðàäèåíò 343" cx="130.7318" cy="190.9207" fx="130.7318" fy="190.9207" r="218.96" gradientUnits="userSpaceOnUse">
      <stop offset="0" stop-color="#e39a65"/>
      <stop offset=".4742" stop-color="#a92ffb"/>
      <stop offset=".5875" stop-color="#881bfa"/>
      <stop offset=".7262" stop-color="#6507fa"/>
      <stop offset="1" stop-color="#3919bb"/>
    </radialGradient>
    <radialGradient id="_Áåçûìÿííûé_ãðàäèåíò_343-2" data-name="Áåçûìÿííûé ãðàäèåíò 343" cx="185.2792" cy="107.1847" fx="185.2792" fy="107.1847" r="223.3409" xlink:href="#_Áåçûìÿííûé_ãðàäèåíò_343"/>
    <linearGradient id="_Áåçûìÿííûé_ãðàäèåíò_441" data-name="Áåçûìÿííûé ãðàäèåíò 441" x1="209.8269" y1="165.8121" x2="388.7932" y2="165.8121" gradientUnits="userSpaceOnUse">
      <stop offset="0" stop-color="#3919bb"/>
      <stop offset="1" stop-color="#6507fa"/>
    </linearGradient>
    <radialGradient id="_Áåçûìÿííûé_ãðàäèåíò_343-3" data-name="Áåçûìÿííûé ãðàäèåíò 343" cx="103.7475" cy="59.4914" fx="103.7475" fy="59.4914" r="347.8475" xlink:href="#_Áåçûìÿííûé_ãðàäèåíò_343"/>
    <linearGradient id="_Áåçûìÿííûé_ãðàäèåíò_33-5" data-name="Áåçûìÿííûé ãðàäèåíò 33" x1="87.8109" y1="190.2935" x2="164.5863" y2="190.2935" xlink:href="#_Áåçûìÿííûé_ãðàäèåíò_33"/>
    <radialGradient id="_Áåçûìÿííûé_ãðàäèåíò_199" data-name="Áåçûìÿííûé ãðàäèåíò 199" cx="94.6175" cy="127.668" fx="94.6175" fy="127.668" r="165.349" gradientUnits="userSpaceOnUse">
      <stop offset="0" stop-color="#e39a65"/>
      <stop offset=".1528" stop-color="#a92ffb"/>
      <stop offset=".4087" stop-color="#3919bb"/>
      <stop offset=".9311" stop-color="#3919bb"/>
    </radialGradient>
    <linearGradient id="_Áåçûìÿííûé_ãðàäèåíò_144" data-name="Áåçûìÿííûé ãðàäèåíò 144" x1="97.5439" y1="107.1846" x2="156.8533" y2="107.1846" gradientUnits="userSpaceOnUse">
      <stop offset="0" stop-color="#e39a65"/>
      <stop offset=".252" stop-color="#a92ffb"/>
      <stop offset=".5556" stop-color="#3919bb"/>
    </linearGradient>
    <linearGradient id="_Áåçûìÿííûé_ãðàäèåíò_483" data-name="Áåçûìÿííûé ãðàäèåíò 483" x1="103.1051" y1="104.171" x2="151.2893" y2="104.171" gradientUnits="userSpaceOnUse">
      <stop offset="0" stop-color="#4f1fec"/>
      <stop offset="1" stop-color="#a92ffb"/>
    </linearGradient>
    <linearGradient id="_Áåçûìÿííûé_ãðàäèåíò_483-2" data-name="Áåçûìÿííûé ãðàäèåíò 483" x1="101.9619" x2="150.1462" xlink:href="#_Áåçûìÿííûé_ãðàäèåíò_483"/>
    <linearGradient id="_Áåçûìÿííûé_ãðàäèåíò_193" data-name="Áåçûìÿííûé ãðàäèåíò 193" x1="103.1091" y1="97.82" x2="163.8612" y2="97.82" gradientUnits="userSpaceOnUse">
      <stop offset="0" stop-color="#131060"/>
      <stop offset=".1857" stop-color="#140f62"/>
      <stop offset=".2823" stop-color="#190f6a"/>
      <stop offset=".3584" stop-color="#220f77"/>
      <stop offset=".4238" stop-color="#2e0f8a"/>
      <stop offset=".4823" stop-color="#3d0ea3"/>
      <stop offset=".5359" stop-color="#510ec1"/>
      <stop offset=".5847" stop-color="#670de5"/>
      <stop offset=".6071" stop-color="#740df8"/>
      <stop offset=".6179" stop-color="#7a14ef"/>
      <stop offset=".6826" stop-color="#9b3bc2"/>
      <stop offset=".7477" stop-color="#b75c9d"/>
      <stop offset=".8123" stop-color="#cc7680"/>
      <stop offset=".8762" stop-color="#db886b"/>
      <stop offset=".9391" stop-color="#e4935f"/>
      <stop offset="1" stop-color="#e8975b"/>
    </linearGradient>
    <radialGradient id="_Áåçûìÿííûé_ãðàäèåíò_223" data-name="Áåçûìÿííûé ãðàäèåíò 223" cx="90.1412" cy="90.4045" fx="90.1412" fy="90.4045" r="108.1645" gradientUnits="userSpaceOnUse">
      <stop offset="0" stop-color="#e39a65"/>
      <stop offset=".252" stop-color="#a92ffb"/>
      <stop offset=".7357" stop-color="#3919bb"/>
    </radialGradient>
    <linearGradient id="_Áåçûìÿííûé_ãðàäèåíò_193-2" data-name="Áåçûìÿííûé ãðàäèåíò 193" x1="123.3839" y1="117.4271" x2="131.7886" y2="117.4271" xlink:href="#_Áåçûìÿííûé_ãðàäèåíò_193"/>
  </defs>
  <path class="cls-18" d="m441.766,316.5051c-1.2041,0-2.4073-.3106-3.4815-.9307l-11.7363-6.7764c-.6807-.3926-1.0879-1.0967-1.0879-1.8828,0-.7851.4072-1.4892,1.0879-1.8818l11.7363-6.7764c2.1465-1.2392,4.8155-1.2402,6.9619,0l11.7373,6.7764c.6807.3926,1.0879,1.0967,1.0879,1.8818,0,.7861-.4072,1.4902-1.0879,1.8828l-11.7363,6.7764c-1.0732.6201-2.2773.9307-3.4814.9307Zm0-17.3174c-.8828,0-1.7647.2265-2.5518.6806l-11.7363,6.7764c-.1358.0791-.1563.2041-.1563.2705,0,.0674.0205.1924.1563.2715l11.7373,6.7764h.001c1.5722.9082,3.5273.9082,5.1015,0l11.7364-6.7764c.1357-.0791.1562-.2041.1562-.2715,0-.0664-.0205-.1914-.1562-.2705l-11.7374-6.7764c-.7871-.4541-1.6689-.6806-2.5507-.6806Z"/>
  <path class="cls-10" d="m408.1986,278.0539c-1.9561,0-3.9111-.5029-5.6553-1.5108l-20.1982-11.6621c-.9619-.5547-1.5362-1.5478-1.5362-2.6582s.5743-2.1035,1.5362-2.6582l20.1972-11.6611c3.4864-2.0147,7.8223-2.0156,11.3106,0l20.1992,11.6611c.9609.5547,1.5352,1.5479,1.5352,2.6573,0,1.1103-.5733,2.1044-1.5342,2.6601l-20.1992,11.6611c-1.7432,1.0069-3.7002,1.5108-5.6553,1.5108Zm-4.7256-3.1221c2.916,1.6817,6.5352,1.6817,9.4512,0l20.1982-11.6611c.5449-.3154.6035-.8379.6035-1.0479s-.0586-.7314-.6035-1.0468l-20.1992-11.6612c-2.916-1.6816-6.5352-1.6816-9.4512,0l-20.1972,11.6612c-.545.3154-.6045.8369-.6045,1.0468s.0595.7315.6045,1.0469l20.1982,11.6621Z"/>
  <path class="cls-29" d="m46.9759,296.4064c-1.956,0-3.9111-.5029-5.6552-1.5107l-20.1993-11.6612c-.9619-.5556-1.5351-1.5498-1.5351-2.6601,0-1.1094.5742-2.1025,1.5351-2.6572l20.1983-11.6612c3.4873-2.0156,7.8232-2.0156,11.3105,0l20.1983,11.6621c.9619.5547,1.5361,1.5479,1.5361,2.6582s-.5742,2.1036-1.5361,2.6582l-20.1973,11.6612c-1.7432,1.0068-3.7002,1.5107-5.6553,1.5107Zm-.0009-29.8008c-1.6338,0-3.2676.4209-4.7256,1.2618l-20.1983,11.6611c-.5449.3154-.6035.8369-.6035,1.0469s.0586.7324.6045,1.0478l20.1982,11.6612h0c2.9161,1.6816,6.5352,1.6816,9.4512,0l20.1973-11.6612c.5459-.3154.6045-.8369.6045-1.0469s-.0586-.7314-.6045-1.0468l-20.1983-11.6621c-1.458-.8409-3.0918-1.2618-4.7255-1.2618Z"/>
  <g>
    <path class="cls-7" d="m251.5216,347.2805l-144.4304-83.3869c-2.1052-1.2155-1.8412-3.3385.5896-4.7419l92.6967-53.5185c2.4308-1.4034,6.108-1.5558,8.2132-.3404l144.4305,83.3869c2.1051,1.2155,1.8411,3.3385-.5897,4.7419l-92.6967,53.5185c-2.4308,1.4034-6.108,1.5559-8.2132.3404Z"/>
    <path class="cls-1" d="m254.8304,362.3351c-1.6885,0-3.3076-.3506-4.5449-1.0654h.001l-164.8379-95.1689c-1.3467-.7764-2.0879-1.8975-2.0879-3.1553,0-1.4453,1.0059-2.8555,2.7598-3.8682l112.3642-65.832c3.082-1.7803,7.6094-1.9512,10.3096-.3916l164.8369,95.1699c1.3467.7764,2.0879,1.8975,2.0879,3.1553,0,1.4453-1.0059,2.8545-2.7607,3.8672l-112.3633,65.832c-1.6709.9648-3.7657,1.457-5.7647,1.457Zm-50.5595-168.6777c-1.6875,0-3.4825.4072-4.8506,1.1963l-112.3633,65.832c-1.1514.6651-1.835,1.5088-1.835,2.2588,0,.7246.6289,1.2402,1.1563,1.5449l164.8379,95.169h.0009c2.1045,1.2168,5.9717,1.039,8.4414-.3887l112.3643-65.832c1.1514-.6651,1.835-1.5078,1.835-2.2588,0-.7236-.6289-1.2393-1.1563-1.544l-164.8369-95.1699c-.9404-.542-2.2324-.8076-3.5937-.8076Z"/>
    <path class="cls-24" d="m391.3906,148.8809l-143.8618-83.0587c-.9889-.5709-2.0207-.6887-2.9364-.4217v-.0002l-.0012.0005c-.0044.0013-.0087.0033-.0131.0045l-2.6636.9282.9376.2216c-.3763.4453-.6791.9973-.8784,1.6453l-32.5337,105.6312c-.8058,2.6195.3748,5.8019,2.6371,7.108l143.8618,83.0586c.3498.202.7049.3407,1.0584.4323l-.3564.7763,2.5446-.8937-.006-.0021c1.0423-.4146,1.9008-1.3458,2.3146-2.6909l32.5337-105.6313c.8057-2.6195-.375-5.8018-2.6372-7.1079Z"/>
    <path class="cls-3" d="m350.7894,267.9424l.051.0609-142.0983-82.0405c-2.0903-1.2068-5.7415-1.0555-8.1552.338l-91.8092,53.006-3.0614-1.1688.8598,4.295.0042-.0024c.114.6459.5664,1.2509,1.3782,1.7196l143.4117,82.7988c2.0904,1.2069,5.7416,1.0555,8.1553-.338l92.0427-53.141c1.1358-.6556,1.7886-1.4694,1.9506-2.2732l.0053.0063.8783-4.1802-3.613.9195Z"/>
    <path class="cls-17" d="m251.5216,323.1704l-144.4304-83.3869c-2.1052-1.2155-1.8412-3.3385.5896-4.7419l92.6967-53.5185c2.4308-1.4034,6.108-1.5559,8.2132-.3404l144.4305,83.3869c2.1051,1.2155,1.8411,3.3385-.5897,4.7419l-92.6967,53.5185c-2.4308,1.4034-6.108,1.5559-8.2132.3404Z"/>
    <path class="cls-4" d="m352.4313,268.1868l-92.6965,53.5183c-2.4308,1.4035-6.108,1.5561-8.2131.3407l-144.4306-83.3871c-.7174-.4141-1.1381-.9373-1.3133-1.4978-.2788.9683.1293,1.9389,1.3133,2.6225l144.4306,83.3871c2.1051,1.2154,5.7823,1.0628,8.2131-.3404l92.6965-53.5185c1.6028-.9253,2.242-2.1597,1.9032-3.2441-.2172.7532-.8393,1.5052-1.9032,2.1193Z"/>
    <g class="cls-13">
      <path class="cls-14" d="m175.9826,226.2512l-4.8762-2.8153c-.3915-.226-.3424-.6209.1097-.8819l5.7555-3.3229c.4521-.2611,1.136-.2894,1.5275-.0634l4.8761,2.8153c.3916.226.3425.6209-.1096.8819l-5.7556,3.3229c-.4521.2611-1.1359.2894-1.5274.0634Z"/>
      <path class="cls-14" d="m183.5128,230.5988l-4.8761-2.8153c-.3916-.226-.3425-.6209.1096-.8819l5.7556-3.3229c.4521-.2611,1.1359-.2894,1.5274-.0634l4.8762,2.8153c.3915.226.3424.6209-.1097.8819l-5.7555,3.3229c-.4521.2611-1.136.2894-1.5275.0634Z"/>
      <path class="cls-14" d="m191.0431,234.9464l-4.8762-2.8153c-.3915-.226-.3424-.6209.1097-.8819l5.7556-3.3229c.452-.2611,1.1359-.2894,1.5274-.0634l4.8762,2.8153c.3915.226.3424.6209-.1097.8819l-5.7555,3.3229c-.4521.2611-1.136.2894-1.5275.0634Z"/>
      <path class="cls-14" d="m201.4579,231.3559l-4.8762-2.8152c-.3915-.226-.3424-.6209.1097-.8819l4.8314-2.7894c.4521-.261,1.136-.2894,1.5275-.0634l4.8762,2.8153c.3915.226.3424.6209-.1097.8819l-4.8315,2.7894c-.4521.261-1.1359.2894-1.5274.0633Z"/>
      <path class="cls-14" d="m208.9881,235.7035l-4.8761-2.8152c-.3916-.226-.3425-.6209.1096-.8819l4.8315-2.7894c.4521-.261,1.1359-.2894,1.5275-.0634l4.8761,2.8153c.3915.226.3424.6209-.1096.8819l-4.8315,2.7894c-.4521.261-1.136.2894-1.5275.0633Z"/>
      <path class="cls-14" d="m216.5184,240.0512l-4.8762-2.8153c-.3915-.226-.3424-.6209.1097-.8819l4.8315-2.7894c.452-.261,1.1359-.2894,1.5274-.0634l4.8762,2.8153c.3915.226.3424.6209-.1097.8819l-4.8315,2.7894c-.452.261-1.1359.2894-1.5274.0634Z"/>
      <path class="cls-14" d="m224.0487,244.3988l-4.8762-2.8153c-.3915-.226-.3424-.6209.1097-.8819l4.8314-2.7894c.4521-.261,1.136-.2894,1.5275-.0633l4.8762,2.8152c.3915.226.3424.6209-.1097.8819l-4.8315,2.7894c-.4521.261-1.1359.2894-1.5274.0634Z"/>
      <path class="cls-14" d="m231.5789,248.7464l-4.8761-2.8153c-.3916-.226-.3425-.6209.1096-.8819l4.8315-2.7894c.4521-.261,1.1359-.2894,1.5275-.0633l4.8761,2.8152c.3915.2261.3424.6209-.1096.8819l-4.8315,2.7894c-.4521.2611-1.136.2894-1.5275.0634Z"/>
      <path class="cls-14" d="m239.1092,253.094l-4.8762-2.8153c-.3915-.226-.3424-.6209.1097-.8819l4.8315-2.7894c.4521-.261,1.1359-.2894,1.5274-.0633l4.8762,2.8152c.3915.2261.3424.6209-.1097.8819l-4.8314,2.7894c-.4521.2611-1.136.2894-1.5275.0634Z"/>
      <path class="cls-14" d="m246.6395,257.4416l-4.8762-2.8153c-.3915-.226-.3424-.6209.1097-.8819l4.8314-2.7894c.4521-.261,1.136-.2894,1.5275-.0633l4.8762,2.8152c.3915.2261.3424.6209-.1097.8819l-4.8315,2.7894c-.4521.2611-1.1359.2894-1.5274.0634Z"/>
      <path class="cls-14" d="m254.1697,261.7892l-4.8761-2.8153c-.3915-.226-.3424-.6209.1096-.8819l4.8315-2.7894c.4521-.261,1.136-.2894,1.5275-.0633l4.8761,2.8152c.3915.2261.3424.6209-.1096.8819l-4.8315,2.7895c-.4521.261-1.136.2893-1.5275.0633Z"/>
      <path class="cls-14" d="m261.7,266.1368l-4.8762-2.8153c-.3915-.226-.3424-.6209.1097-.8819l4.8315-2.7894c.4521-.261,1.1359-.2894,1.5274-.0633l4.8762,2.8152c.3915.2261.3424.6209-.1097.8819l-4.8314,2.7895c-.4521.261-1.136.2893-1.5275.0633Z"/>
      <path class="cls-14" d="m269.2303,270.4844l-4.8762-2.8153c-.3915-.226-.3424-.6209.1097-.8819l4.8314-2.7894c.4521-.261,1.136-.2894,1.5275-.0633l4.8762,2.8152c.3915.2261.3424.6209-.1097.8819l-4.8315,2.7895c-.452.261-1.1359.2893-1.5274.0633Z"/>
      <path class="cls-14" d="m212.5532,229.2976l-4.8761-2.8152c-.3915-.2261-.3424-.6209.1096-.8819l4.8315-2.7895c.4521-.261,1.136-.2893,1.5275-.0633l4.8761,2.8153c.3915.226.3424.6209-.1096.8819l-4.8315,2.7894c-.4521.261-1.136.2894-1.5275.0633Z"/>
      <path class="cls-14" d="m204.9106,224.8851l-4.8762-2.8152c-.3915-.2261-.3424-.6209.1097-.8819l4.8314-2.7895c.4521-.261,1.136-.2893,1.5275-.0633l4.8762,2.8153c.3915.226.3424.6209-.1097.8819l-4.8315,2.7894c-.4521.261-1.1359.2894-1.5274.0633Z"/>
      <path class="cls-14" d="m197.2554,220.4654l-10.502-6.0633c-.3915-.226-.3424-.6209.1097-.8819l4.8314-2.7894c.4521-.261,1.136-.2894,1.5275-.0634l10.502,6.0634c.3915.226.3424.6209-.1096.8819l-4.8315,2.7894c-.4521.261-1.136.2894-1.5275.0633Z"/>
      <path class="cls-14" d="m202.6063,215.0905l-8.5226-4.9205c-.3916-.2261-.3425-.6209.1096-.8819l4.8315-2.7895c.4521-.261,1.1359-.2893,1.5275-.0633l8.5226,4.9206c.3915.226.3424.6209-.1096.8819l-4.8315,2.7894c-.4521.261-1.136.2894-1.5275.0633Z"/>
      <path class="cls-14" d="m220.0835,233.6452l-4.8762-2.8152c-.3915-.2261-.3424-.6209.1097-.8819l4.8315-2.7895c.4521-.261,1.1359-.2893,1.5274-.0633l4.8762,2.8153c.3915.226.3424.6209-.1097.8819l-4.8314,2.7894c-.4521.261-1.136.2894-1.5275.0633Z"/>
      <path class="cls-14" d="m227.6138,237.9928l-4.8762-2.8152c-.3915-.2261-.3424-.6209.1097-.8819l4.8314-2.7895c.4521-.261,1.136-.2893,1.5275-.0633l4.8762,2.8153c.3915.226.3424.6209-.1097.8819l-4.8315,2.7894c-.4521.261-1.1359.2894-1.5274.0633Z"/>
      <path class="cls-14" d="m235.144,242.3404l-4.8761-2.8152c-.3915-.2261-.3424-.6209.1096-.8819l4.8315-2.7894c.4521-.2611,1.136-.2894,1.5275-.0634l4.8761,2.8153c.3915.226.3424.6209-.1096.8819l-4.8315,2.7894c-.4521.261-1.1359.2894-1.5275.0633Z"/>
      <path class="cls-14" d="m242.6743,246.688l-4.8762-2.8152c-.3915-.2261-.3424-.6209.1097-.8819l4.8315-2.7894c.4521-.2611,1.1359-.2894,1.5274-.0634l4.8762,2.8153c.3915.226.3424.6209-.1097.8819l-4.8314,2.7894c-.4521.261-1.136.2894-1.5275.0633Z"/>
      <path class="cls-14" d="m250.2046,251.0356l-4.8762-2.8152c-.3915-.2261-.3424-.6209.1097-.8819l4.8315-2.7894c.452-.2611,1.1359-.2894,1.5274-.0634l4.8762,2.8153c.3915.226.3424.6209-.1097.8819l-4.8315,2.7894c-.452.261-1.1359.2894-1.5274.0633Z"/>
      <path class="cls-14" d="m257.7348,255.3832l-4.8761-2.8152c-.3915-.226-.3424-.6209.1096-.8819l4.8315-2.7894c.4521-.261,1.136-.2894,1.5275-.0634l4.8761,2.8153c.3916.226.3425.6209-.1096.8819l-4.8315,2.7894c-.4521.261-1.1359.2894-1.5275.0633Z"/>
      <path class="cls-14" d="m265.2651,259.7308l-4.8762-2.8152c-.3915-.226-.3424-.6209.1097-.8819l4.8315-2.7894c.4521-.261,1.1359-.2894,1.5274-.0634l4.8762,2.8153c.3915.226.3424.6209-.1097.8819l-4.8314,2.7894c-.4521.261-1.136.2894-1.5275.0633Z"/>
      <path class="cls-14" d="m272.7954,264.0785l-4.8762-2.8153c-.3915-.226-.3424-.6209.1097-.8819l4.8315-2.7894c.452-.261,1.1359-.2894,1.5274-.0634l4.8762,2.8153c.3915.226.3424.6209-.1097.8819l-4.8315,2.7894c-.452.261-1.1359.2894-1.5274.0634Z"/>
      <path class="cls-14" d="m280.3257,268.4261l-4.8762-2.8153c-.3915-.226-.3424-.6209.1097-.8819l4.8314-2.7894c.4521-.261,1.136-.2894,1.5275-.0633l4.8762,2.8152c.3915.226.3424.6209-.1097.8819l-4.8315,2.7894c-.4521.261-1.1359.2894-1.5274.0634Z"/>
      <path class="cls-14" d="m293.7128,276.1551l-10.6394-6.1426c-.3915-.2261-.3424-.6209.1097-.8819l4.8315-2.7895c.452-.261,1.1359-.2893,1.5274-.0633l10.6394,6.1427c.3915.226.3424.6208-.1097.8819l-4.8314,2.7894c-.4521.261-1.136.2894-1.5275.0633Z"/>
      <path class="cls-14" d="m308.3733,267.6909l-8.98-5.1846c-.3916-.2261-.3425-.6209.1096-.8819l4.8315-2.7895c.4521-.261,1.1359-.2893,1.5275-.0633l8.98,5.1846c.3915.2261.3424.6209-.1097.8819l-4.8315,2.7895c-.452.261-1.1359.2893-1.5274.0633Z"/>
      <path class="cls-14" d="m233.2706,232.7946l-4.8761-2.8153c-.3916-.226-.3425-.6208.1096-.8819l4.8315-2.7894c.4521-.261,1.1359-.2894,1.5275-.0633l4.8761,2.8152c.3915.2261.3424.6209-.1096.8819l-4.8315,2.7895c-.4521.261-1.136.2893-1.5275.0633Z"/>
      <path class="cls-14" d="m225.553,228.3388l-4.8761-2.8152c-.3915-.2261-.3424-.6209.1096-.8819l4.8315-2.7895c.4521-.261,1.136-.2893,1.5275-.0633l4.8761,2.8153c.3915.226.3424.6209-.1096.8819l-4.8315,2.7894c-.4521.261-1.136.2894-1.5275.0633Z"/>
      <path class="cls-14" d="m217.8354,223.8831l-4.8761-2.8153c-.3915-.226-.3424-.6208.1096-.8819l4.8315-2.7894c.4521-.261,1.136-.2894,1.5275-.0633l4.8761,2.8152c.3916.2261.3425.6209-.1096.8819l-4.8315,2.7895c-.4521.261-1.1359.2893-1.5275.0633Z"/>
      <path class="cls-14" d="m210.1179,219.4273l-4.8762-2.8152c-.3915-.2261-.3424-.6209.1097-.8819l4.8314-2.7895c.4521-.261,1.136-.2893,1.5275-.0633l4.8762,2.8153c.3915.226.3424.6208-.1097.8819l-4.8315,2.7894c-.4521.261-1.1359.2894-1.5274.0633Z"/>
      <path class="cls-14" d="m240.8009,237.1422l-4.8762-2.8153c-.3915-.226-.3424-.6208.1097-.8818l4.8315-2.7895c.452-.261,1.1359-.2894,1.5274-.0633l4.8762,2.8152c.3915.2261.3424.6209-.1097.8819l-4.8315,2.7895c-.452.261-1.1359.2893-1.5274.0633Z"/>
      <path class="cls-14" d="m248.3312,241.4898l-4.8762-2.8153c-.3915-.226-.3424-.6208.1097-.8818l4.8314-2.7895c.4521-.261,1.136-.2894,1.5275-.0633l4.8762,2.8152c.3915.2261.3424.6209-.1097.8819l-4.8315,2.7895c-.4521.261-1.1359.2893-1.5274.0633Z"/>
      <path class="cls-14" d="m255.8614,245.8374l-4.8761-2.8153c-.3915-.226-.3424-.6208.1096-.8818l4.8315-2.7895c.4521-.261,1.136-.2894,1.5275-.0633l4.8761,2.8152c.3915.2261.3424.6209-.1096.8819l-4.8315,2.7895c-.4521.261-1.136.2893-1.5275.0633Z"/>
      <path class="cls-14" d="m263.3917,250.185l-4.8762-2.8153c-.3915-.226-.3424-.6208.1097-.8818l4.8315-2.7895c.4521-.261,1.1359-.2893,1.5274-.0633l4.8762,2.8152c.3915.2261.3424.6209-.1097.8819l-4.8314,2.7895c-.4521.261-1.136.2893-1.5275.0633Z"/>
      <path class="cls-14" d="m270.922,254.5326l-4.8762-2.8153c-.3915-.226-.3424-.6208.1097-.8818l4.8314-2.7895c.4521-.261,1.136-.2893,1.5275-.0633l4.8762,2.8152c.3915.2261.3424.6209-.1097.8819l-4.8315,2.7895c-.4521.261-1.1359.2893-1.5274.0633Z"/>
      <path class="cls-14" d="m278.4522,258.8802l-4.8761-2.8153c-.3915-.226-.3424-.6208.1096-.8818l4.8315-2.7895c.4521-.261,1.136-.2893,1.5275-.0633l4.8761,2.8153c.3915.226.3424.6208-.1096.8818l-4.8315,2.7895c-.4521.261-1.136.2893-1.5275.0633Z"/>
      <path class="cls-14" d="m285.9825,263.2278l-4.8762-2.8153c-.3915-.226-.3424-.6208.1097-.8818l4.8315-2.7895c.4521-.261,1.1359-.2893,1.5274-.0633l4.8762,2.8153c.3915.226.3424.6208-.1097.8818l-4.8314,2.7895c-.4521.261-1.136.2893-1.5275.0633Z"/>
      <path class="cls-14" d="m293.5128,267.5754l-4.8762-2.8153c-.3915-.226-.3424-.6208.1097-.8818l4.8315-2.7895c.452-.261,1.1359-.2893,1.5274-.0633l4.8762,2.8153c.3915.226.3424.6208-.1097.8818l-4.8315,2.7895c-.452.261-1.1359.2893-1.5274.0633Z"/>
      <path class="cls-14" d="m301.043,271.923l-4.8761-2.8152c-.3915-.2261-.3424-.6209.1096-.8819l4.8315-2.7895c.4521-.261,1.136-.2893,1.5275-.0633l4.8761,2.8153c.3916.226.3425.6208-.1096.8818l-4.8315,2.7895c-.4521.261-1.1359.2893-1.5275.0633Z"/>
      <path class="cls-14" d="m229.3055,222.0411l-4.8762-2.8153c-.3915-.226-.3424-.6209.1097-.8819l4.8314-2.7894c.4521-.261,1.136-.2894,1.5275-.0633l4.8762,2.8152c.3915.2261.3424.6209-.1097.8819l-4.8315,2.7894c-.4521.261-1.1359.2894-1.5274.0634Z"/>
      <path class="cls-14" d="m221.8127,217.7151l-4.8762-2.8153c-.3915-.226-.3424-.6208.1097-.8818l4.8314-2.7895c.4521-.261,1.136-.2894,1.5275-.0633l4.8762,2.8152c.3915.2261.3424.6209-.1097.8819l-4.8315,2.7895c-.4521.261-1.1359.2893-1.5274.0633Z"/>
      <path class="cls-14" d="m214.3199,213.3891l-4.8762-2.8152c-.3915-.2261-.3424-.6209.1097-.8819l4.8314-2.7895c.4521-.261,1.136-.2893,1.5275-.0633l4.8762,2.8153c.3915.226.3424.6208-.1097.8818l-4.8315,2.7895c-.4521.261-1.1359.2894-1.5274.0633Z"/>
      <path class="cls-14" d="m206.8271,209.0631l-4.8762-2.8152c-.3915-.2261-.3424-.6209.1097-.8819l4.8314-2.7894c.4521-.2611,1.136-.2894,1.5275-.0634l4.8761,2.8153c.3916.226.3425.6209-.1096.8819l-4.8315,2.7894c-.4521.261-1.1359.2894-1.5274.0633Z"/>
      <path class="cls-14" d="m214.5319,204.6147l-4.8761-2.8152c-.3916-.2261-.3425-.6209.1096-.8819l1.5972-.9221c.4521-.261,1.1359-.2894,1.5275-.0634l4.8761,2.8153c.3915.226.3424.6209-.1096.8819l-1.5972.9221c-.4521.261-1.136.2894-1.5275.0633Z"/>
      <path class="cls-14" d="m224.31,210.2601l-4.8761-2.8152c-.3915-.2261-.3424-.6209.1096-.8819l1.5972-.9221c.4521-.261,1.136-.2894,1.5275-.0634l4.8761,2.8153c.3915.226.3424.6209-.1096.8819l-1.5972.9221c-.4521.261-1.136.2894-1.5275.0633Z"/>
      <path class="cls-14" d="m231.7716,214.5681l-4.8761-2.8153c-.3916-.226-.3425-.6209.1096-.8819l1.5972-.9221c.4521-.261,1.1359-.2893,1.5275-.0633l4.8761,2.8152c.3915.2261.3424.6209-.1096.8819l-1.5972.9222c-.4521.261-1.136.2893-1.5275.0633Z"/>
      <path class="cls-14" d="m239.2332,218.876l-4.8762-2.8152c-.3915-.2261-.3424-.6209.1097-.8819l1.5972-.9221c.4521-.2611,1.1359-.2894,1.5274-.0634l4.8762,2.8153c.3915.226.3424.6209-.1097.8819l-1.5971.9221c-.4521.261-1.136.2894-1.5275.0633Z"/>
      <path class="cls-14" d="m246.6948,223.184l-4.8762-2.8153c-.3915-.226-.3424-.6209.1097-.8819l1.5972-.9221c.452-.261,1.1359-.2894,1.5274-.0633l4.8762,2.8152c.3915.2261.3424.6209-.1097.8819l-1.5972.9222c-.452.261-1.1359.2893-1.5274.0633Z"/>
      <path class="cls-14" d="m288.3517,247.2346l-4.8762-2.8153c-.3915-.226-.3424-.6209.1097-.8819l1.5971-.9221c.4521-.261,1.136-.2893,1.5275-.0633l4.8762,2.8152c.3915.2261.3424.6209-.1097.8819l-1.5972.9222c-.4521.261-1.1359.2893-1.5274.0633Z"/>
      <path class="cls-14" d="m295.8132,251.5425l-4.8761-2.8152c-.3915-.2261-.3424-.6209.1096-.8819l1.5972-.9221c.4521-.2611,1.136-.2894,1.5275-.0634l4.8761,2.8153c.3916.226.3425.6209-.1096.8819l-1.5972.9221c-.4521.261-1.1359.2894-1.5275.0633Z"/>
      <path class="cls-14" d="m303.2748,255.8505l-4.8761-2.8153c-.3915-.226-.3424-.6209.1096-.8819l1.5972-.9221c.4521-.261,1.136-.2893,1.5275-.0633l4.8761,2.8152c.3915.2261.3424.6209-.1096.8819l-1.5972.9222c-.4521.261-1.136.2893-1.5275.0633Z"/>
      <path class="cls-14" d="m310.7364,260.1584l-4.8761-2.8152c-.3916-.2261-.3425-.6209.1096-.8819l1.5972-.9221c.4521-.2611,1.1359-.2894,1.5275-.0634l4.8761,2.8153c.3915.226.3424.6209-.1096.8819l-1.5972.9221c-.4521.261-1.136.2894-1.5275.0633Z"/>
      <path class="cls-14" d="m236.8357,226.3887l-4.8761-2.8153c-.3915-.226-.3424-.6209.1096-.8819l4.8315-2.7894c.4521-.261,1.136-.2894,1.5275-.0633l4.8761,2.8152c.3915.2261.3424.6209-.1096.8819l-4.8315,2.7894c-.4521.2611-1.136.2894-1.5275.0634Z"/>
      <path class="cls-14" d="m244.366,230.7363l-4.8762-2.8153c-.3915-.226-.3424-.6209.1097-.8819l4.8315-2.7894c.4521-.261,1.1359-.2894,1.5274-.0633l4.8762,2.8152c.3915.2261.3424.6209-.1097.8819l-4.8314,2.7894c-.4521.2611-1.136.2894-1.5275.0634Z"/>
      <path class="cls-14" d="m251.8963,235.0839l-4.8762-2.8153c-.3915-.226-.3424-.6209.1097-.8819l4.8314-2.7894c.4521-.261,1.136-.2894,1.5275-.0633l4.8762,2.8152c.3915.2261.3424.6209-.1097.8819l-4.8315,2.7895c-.4521.261-1.1359.2893-1.5274.0633Z"/>
      <path class="cls-14" d="m259.4265,239.4315l-4.8761-2.8153c-.3915-.226-.3424-.6209.1096-.8819l4.8315-2.7894c.4521-.261,1.136-.2894,1.5275-.0633l4.8761,2.8152c.3916.2261.3425.6209-.1096.8819l-4.8315,2.7895c-.4521.261-1.1359.2893-1.5275.0633Z"/>
      <path class="cls-14" d="m266.9568,243.7791l-4.8762-2.8153c-.3915-.226-.3424-.6209.1097-.8819l4.8315-2.7894c.4521-.261,1.1359-.2894,1.5274-.0633l4.8762,2.8152c.3915.2261.3424.6209-.1097.8819l-4.8314,2.7895c-.4521.261-1.136.2893-1.5275.0633Z"/>
      <path class="cls-14" d="m274.4871,248.1267l-4.8762-2.8153c-.3915-.226-.3424-.6209.1097-.8819l4.8315-2.7894c.452-.261,1.1359-.2894,1.5274-.0633l4.8762,2.8152c.3915.2261.3424.6209-.1097.8819l-4.8315,2.7895c-.452.261-1.1359.2893-1.5274.0633Z"/>
      <path class="cls-14" d="m282.0173,252.4743l-4.8761-2.8153c-.3915-.226-.3424-.6208.1096-.8819l4.8315-2.7894c.4521-.261,1.136-.2894,1.5275-.0633l4.8761,2.8152c.3916.2261.3425.6209-.1096.8819l-4.8315,2.7895c-.4521.261-1.1359.2893-1.5275.0633Z"/>
      <path class="cls-14" d="m289.5476,256.8219l-4.8761-2.8153c-.3916-.226-.3425-.6208.1096-.8819l4.8315-2.7894c.4521-.261,1.1359-.2894,1.5274-.0633l4.8762,2.8152c.3915.2261.3424.6209-.1097.8819l-4.8314,2.7895c-.4521.261-1.136.2893-1.5275.0633Z"/>
      <path class="cls-14" d="m297.0779,261.1695l-4.8762-2.8153c-.3915-.226-.3424-.6208.1097-.8819l4.8315-2.7894c.452-.261,1.1359-.2894,1.5274-.0633l4.8762,2.8152c.3915.2261.3424.6209-.1097.8819l-4.8315,2.7895c-.452.261-1.1359.2893-1.5274.0633Z"/>
      <path class="cls-14" d="m193.784,226.9254l-14.3608-8.2912c-.3915-.226-.3425-.6209.1096-.8819l4.8315-2.7894c.4521-.261,1.1359-.2894,1.5275-.0633l14.3608,8.2912c.3915.226.3424.6209-.1097.8819l-4.8315,2.7894c-.4521.261-1.1359.2894-1.5274.0633Z"/>
      <path class="cls-14" d="m286.2951,280.3368l-14.3608-8.2912c-.3915-.2261-.3424-.6209.1097-.8819l4.8315-2.7895c.452-.261,1.1359-.2893,1.5274-.0633l14.3608,8.2912c.3915.2261.3424.6209-.1096.8819l-4.8315,2.7895c-.4521.261-1.136.2893-1.5275.0633Z"/>
      <path class="cls-14" d="m256.1805,272.5535l-4.8761-2.8153c-.3915-.226-.3424-.6208.1096-.8818l5.7556-3.323c.4521-.261,1.136-.2894,1.5275-.0633l4.8761,2.8152c.3915.2261.3424.6209-.1096.8819l-5.7556,3.323c-.4521.261-1.1359.2893-1.5275.0633Z"/>
      <path class="cls-14" d="m201.4956,240.9811l-7.7984-4.5024c-.3915-.226-.3424-.6209.1097-.8819l5.7555-3.3229c.4521-.261,1.136-.2894,1.5275-.0634l7.7983,4.5024c.3916.2261.3425.6209-.1096.8819l-5.7556,3.323c-.4521.261-1.1359.2893-1.5274.0633Z"/>
      <path class="cls-14" d="m248.925,268.3645l-7.7983-4.5024c-.3916-.226-.3425-.6208.1096-.8819l5.7556-3.3229c.4521-.261,1.1359-.2894,1.5274-.0633l7.7984,4.5023c.3915.2261.3424.6209-.1097.8819l-5.7555,3.323c-.4521.261-1.136.2893-1.5275.0633Z"/>
      <path class="cls-14" d="m212.3601,247.2538l-7.7983-4.5024c-.3915-.2261-.3424-.6209.1096-.8819l5.7556-3.323c.4521-.261,1.1359-.2893,1.5275-.0633l7.7983,4.5024c.3915.226.3424.6209-.1097.8819l-5.7555,3.3229c-.4521.261-1.136.2894-1.5275.0634Z"/>
      <path class="cls-14" d="m212.0073,238.5137l33.905,19.5751c.4207.2429.4207.6367,0,.8796l-5.8692,3.3885c-.4207.2429-1.1028.2429-1.5235,0l-33.905-19.575,7.3927-4.2682Z"/>
      <path class="cls-14" d="m277.2264,280.4362l5.4316,3.1359c.3209.1852.2806.5089-.0899.7228l-2.3545,1.3594c-.3705.2139-.9311.2371-1.252.0519l-5.4315-3.136c-.3209-.1852-.2807-.5089.0899-.7228l2.3544-1.3593c.3706-.214.9311-.2372,1.252-.0519Z"/>
      <path class="cls-14" d="m269.6337,276.0525l5.4316,3.1359c.3209.1853.2806.5089-.0899.7229l-2.3545,1.3593c-.3705.2139-.9311.2372-1.252.0519l-5.4315-3.1359c-.3209-.1853-.2807-.5089.0899-.7229l2.3544-1.3593c.3706-.2139.9311-.2372,1.252-.0519Z"/>
      <path class="cls-14" d="m262.1034,271.7049l5.4316,3.1359c.3209.1853.2807.5089-.0899.7229l-2.3544,1.3593c-.3706.2139-.9311.2372-1.252.0519l-5.4316-3.1359c-.3209-.1853-.2807-.5089.0899-.7229l2.3544-1.3593c.3706-.2139.9311-.2372,1.252-.0519Z"/>
      <path class="cls-14" d="m273.7921,273.6517l5.4315,3.1359c.321.1852.2807.5089-.0898.7228l-2.3545,1.3594c-.3705.2139-.9311.2371-1.252.0519l-5.4315-3.1359c-.321-.1853-.2807-.509.0898-.7229l2.3545-1.3593c.3705-.214.9311-.2372,1.252-.0519Z"/>
    </g>
    <g class="cls-13">
      <path class="cls-14" d="m175.9826,226.2512l-4.8762-2.8153c-.3915-.226-.3424-.6209.1097-.8819l5.7555-3.3229c.4521-.2611,1.136-.2894,1.5275-.0634l4.8761,2.8153c.3916.226.3425.6209-.1096.8819l-5.7556,3.3229c-.4521.2611-1.1359.2894-1.5274.0634Z"/>
      <path class="cls-14" d="m183.5128,230.5988l-4.8761-2.8153c-.3916-.226-.3425-.6209.1096-.8819l5.7556-3.3229c.4521-.2611,1.1359-.2894,1.5274-.0634l4.8762,2.8153c.3915.226.3424.6209-.1097.8819l-5.7555,3.3229c-.4521.2611-1.136.2894-1.5275.0634Z"/>
      <path class="cls-14" d="m191.0431,234.9464l-4.8762-2.8153c-.3915-.226-.3424-.6209.1097-.8819l5.7556-3.3229c.452-.2611,1.1359-.2894,1.5274-.0634l4.8762,2.8153c.3915.226.3424.6209-.1097.8819l-5.7555,3.3229c-.4521.2611-1.136.2894-1.5275.0634Z"/>
      <path class="cls-14" d="m201.4579,231.3559l-4.8762-2.8152c-.3915-.226-.3424-.6209.1097-.8819l4.8314-2.7894c.4521-.261,1.136-.2894,1.5275-.0634l4.8762,2.8153c.3915.226.3424.6209-.1097.8819l-4.8315,2.7894c-.4521.261-1.1359.2894-1.5274.0633Z"/>
      <path class="cls-14" d="m208.9881,235.7035l-4.8761-2.8152c-.3916-.226-.3425-.6209.1096-.8819l4.8315-2.7894c.4521-.261,1.1359-.2894,1.5275-.0634l4.8761,2.8153c.3915.226.3424.6209-.1096.8819l-4.8315,2.7894c-.4521.261-1.136.2894-1.5275.0633Z"/>
      <path class="cls-14" d="m216.5184,240.0512l-4.8762-2.8153c-.3915-.226-.3424-.6209.1097-.8819l4.8315-2.7894c.452-.261,1.1359-.2894,1.5274-.0634l4.8762,2.8153c.3915.226.3424.6209-.1097.8819l-4.8315,2.7894c-.452.261-1.1359.2894-1.5274.0634Z"/>
      <path class="cls-14" d="m224.0487,244.3988l-4.8762-2.8153c-.3915-.226-.3424-.6209.1097-.8819l4.8314-2.7894c.4521-.261,1.136-.2894,1.5275-.0633l4.8762,2.8152c.3915.226.3424.6209-.1097.8819l-4.8315,2.7894c-.4521.261-1.1359.2894-1.5274.0634Z"/>
      <path class="cls-14" d="m231.5789,248.7464l-4.8761-2.8153c-.3916-.226-.3425-.6209.1096-.8819l4.8315-2.7894c.4521-.261,1.1359-.2894,1.5275-.0633l4.8761,2.8152c.3915.2261.3424.6209-.1096.8819l-4.8315,2.7894c-.4521.2611-1.136.2894-1.5275.0634Z"/>
      <path class="cls-14" d="m239.1092,253.094l-4.8762-2.8153c-.3915-.226-.3424-.6209.1097-.8819l4.8315-2.7894c.4521-.261,1.1359-.2894,1.5274-.0633l4.8762,2.8152c.3915.2261.3424.6209-.1097.8819l-4.8314,2.7894c-.4521.2611-1.136.2894-1.5275.0634Z"/>
      <path class="cls-14" d="m246.6395,257.4416l-4.8762-2.8153c-.3915-.226-.3424-.6209.1097-.8819l4.8314-2.7894c.4521-.261,1.136-.2894,1.5275-.0633l4.8762,2.8152c.3915.2261.3424.6209-.1097.8819l-4.8315,2.7894c-.4521.2611-1.1359.2894-1.5274.0634Z"/>
      <path class="cls-14" d="m254.1697,261.7892l-4.8761-2.8153c-.3915-.226-.3424-.6209.1096-.8819l4.8315-2.7894c.4521-.261,1.136-.2894,1.5275-.0633l4.8761,2.8152c.3915.2261.3424.6209-.1096.8819l-4.8315,2.7895c-.4521.261-1.136.2893-1.5275.0633Z"/>
      <path class="cls-14" d="m261.7,266.1368l-4.8762-2.8153c-.3915-.226-.3424-.6209.1097-.8819l4.8315-2.7894c.4521-.261,1.1359-.2894,1.5274-.0633l4.8762,2.8152c.3915.2261.3424.6209-.1097.8819l-4.8314,2.7895c-.4521.261-1.136.2893-1.5275.0633Z"/>
      <path class="cls-14" d="m269.2303,270.4844l-4.8762-2.8153c-.3915-.226-.3424-.6209.1097-.8819l4.8314-2.7894c.4521-.261,1.136-.2894,1.5275-.0633l4.8762,2.8152c.3915.2261.3424.6209-.1097.8819l-4.8315,2.7895c-.452.261-1.1359.2893-1.5274.0633Z"/>
      <path class="cls-14" d="m212.5532,229.2976l-4.8761-2.8152c-.3915-.2261-.3424-.6209.1096-.8819l4.8315-2.7895c.4521-.261,1.136-.2893,1.5275-.0633l4.8761,2.8153c.3915.226.3424.6209-.1096.8819l-4.8315,2.7894c-.4521.261-1.136.2894-1.5275.0633Z"/>
      <path class="cls-14" d="m204.9106,224.8851l-4.8762-2.8152c-.3915-.2261-.3424-.6209.1097-.8819l4.8314-2.7895c.4521-.261,1.136-.2893,1.5275-.0633l4.8762,2.8153c.3915.226.3424.6209-.1097.8819l-4.8315,2.7894c-.4521.261-1.1359.2894-1.5274.0633Z"/>
      <path class="cls-14" d="m197.2554,220.4654l-10.502-6.0633c-.3915-.226-.3424-.6209.1097-.8819l4.8314-2.7894c.4521-.261,1.136-.2894,1.5275-.0634l10.502,6.0634c.3915.226.3424.6209-.1096.8819l-4.8315,2.7894c-.4521.261-1.136.2894-1.5275.0633Z"/>
      <path class="cls-14" d="m202.6063,215.0905l-8.5226-4.9205c-.3916-.2261-.3425-.6209.1096-.8819l4.8315-2.7895c.4521-.261,1.1359-.2893,1.5275-.0633l8.5226,4.9206c.3915.226.3424.6209-.1096.8819l-4.8315,2.7894c-.4521.261-1.136.2894-1.5275.0633Z"/>
      <path class="cls-14" d="m220.0835,233.6452l-4.8762-2.8152c-.3915-.2261-.3424-.6209.1097-.8819l4.8315-2.7895c.4521-.261,1.1359-.2893,1.5274-.0633l4.8762,2.8153c.3915.226.3424.6209-.1097.8819l-4.8314,2.7894c-.4521.261-1.136.2894-1.5275.0633Z"/>
      <path class="cls-14" d="m227.6138,237.9928l-4.8762-2.8152c-.3915-.2261-.3424-.6209.1097-.8819l4.8314-2.7895c.4521-.261,1.136-.2893,1.5275-.0633l4.8762,2.8153c.3915.226.3424.6209-.1097.8819l-4.8315,2.7894c-.4521.261-1.1359.2894-1.5274.0633Z"/>
      <path class="cls-14" d="m235.144,242.3404l-4.8761-2.8152c-.3915-.2261-.3424-.6209.1096-.8819l4.8315-2.7894c.4521-.2611,1.136-.2894,1.5275-.0634l4.8761,2.8153c.3915.226.3424.6209-.1096.8819l-4.8315,2.7894c-.4521.261-1.1359.2894-1.5275.0633Z"/>
      <path class="cls-14" d="m242.6743,246.688l-4.8762-2.8152c-.3915-.2261-.3424-.6209.1097-.8819l4.8315-2.7894c.4521-.2611,1.1359-.2894,1.5274-.0634l4.8762,2.8153c.3915.226.3424.6209-.1097.8819l-4.8314,2.7894c-.4521.261-1.136.2894-1.5275.0633Z"/>
      <path class="cls-14" d="m250.2046,251.0356l-4.8762-2.8152c-.3915-.2261-.3424-.6209.1097-.8819l4.8315-2.7894c.452-.2611,1.1359-.2894,1.5274-.0634l4.8762,2.8153c.3915.226.3424.6209-.1097.8819l-4.8315,2.7894c-.452.261-1.1359.2894-1.5274.0633Z"/>
      <path class="cls-14" d="m257.7348,255.3832l-4.8761-2.8152c-.3915-.226-.3424-.6209.1096-.8819l4.8315-2.7894c.4521-.261,1.136-.2894,1.5275-.0634l4.8761,2.8153c.3916.226.3425.6209-.1096.8819l-4.8315,2.7894c-.4521.261-1.1359.2894-1.5275.0633Z"/>
      <path class="cls-14" d="m265.2651,259.7308l-4.8762-2.8152c-.3915-.226-.3424-.6209.1097-.8819l4.8315-2.7894c.4521-.261,1.1359-.2894,1.5274-.0634l4.8762,2.8153c.3915.226.3424.6209-.1097.8819l-4.8314,2.7894c-.4521.261-1.136.2894-1.5275.0633Z"/>
      <path class="cls-14" d="m272.7954,264.0785l-4.8762-2.8153c-.3915-.226-.3424-.6209.1097-.8819l4.8315-2.7894c.452-.261,1.1359-.2894,1.5274-.0634l4.8762,2.8153c.3915.226.3424.6209-.1097.8819l-4.8315,2.7894c-.452.261-1.1359.2894-1.5274.0634Z"/>
      <path class="cls-14" d="m280.3257,268.4261l-4.8762-2.8153c-.3915-.226-.3424-.6209.1097-.8819l4.8314-2.7894c.4521-.261,1.136-.2894,1.5275-.0633l4.8762,2.8152c.3915.226.3424.6209-.1097.8819l-4.8315,2.7894c-.4521.261-1.1359.2894-1.5274.0634Z"/>
      <path class="cls-14" d="m293.7128,276.1551l-10.6394-6.1426c-.3915-.2261-.3424-.6209.1097-.8819l4.8315-2.7895c.452-.261,1.1359-.2893,1.5274-.0633l10.6394,6.1427c.3915.226.3424.6208-.1097.8819l-4.8314,2.7894c-.4521.261-1.136.2894-1.5275.0633Z"/>
      <path class="cls-14" d="m308.3733,267.6909l-8.98-5.1846c-.3916-.2261-.3425-.6209.1096-.8819l4.8315-2.7895c.4521-.261,1.1359-.2893,1.5275-.0633l8.98,5.1846c.3915.2261.3424.6209-.1097.8819l-4.8315,2.7895c-.452.261-1.1359.2893-1.5274.0633Z"/>
      <path class="cls-14" d="m233.2706,232.7946l-4.8761-2.8153c-.3916-.226-.3425-.6208.1096-.8819l4.8315-2.7894c.4521-.261,1.1359-.2894,1.5275-.0633l4.8761,2.8152c.3915.2261.3424.6209-.1096.8819l-4.8315,2.7895c-.4521.261-1.136.2893-1.5275.0633Z"/>
      <path class="cls-14" d="m225.553,228.3388l-4.8761-2.8152c-.3915-.2261-.3424-.6209.1096-.8819l4.8315-2.7895c.4521-.261,1.136-.2893,1.5275-.0633l4.8761,2.8153c.3915.226.3424.6209-.1096.8819l-4.8315,2.7894c-.4521.261-1.136.2894-1.5275.0633Z"/>
      <path class="cls-14" d="m217.8354,223.8831l-4.8761-2.8153c-.3915-.226-.3424-.6208.1096-.8819l4.8315-2.7894c.4521-.261,1.136-.2894,1.5275-.0633l4.8761,2.8152c.3916.2261.3425.6209-.1096.8819l-4.8315,2.7895c-.4521.261-1.1359.2893-1.5275.0633Z"/>
      <path class="cls-14" d="m210.1179,219.4273l-4.8762-2.8152c-.3915-.2261-.3424-.6209.1097-.8819l4.8314-2.7895c.4521-.261,1.136-.2893,1.5275-.0633l4.8762,2.8153c.3915.226.3424.6208-.1097.8819l-4.8315,2.7894c-.4521.261-1.1359.2894-1.5274.0633Z"/>
      <path class="cls-14" d="m240.8009,237.1422l-4.8762-2.8153c-.3915-.226-.3424-.6208.1097-.8818l4.8315-2.7895c.452-.261,1.1359-.2894,1.5274-.0633l4.8762,2.8152c.3915.2261.3424.6209-.1097.8819l-4.8315,2.7895c-.452.261-1.1359.2893-1.5274.0633Z"/>
      <path class="cls-14" d="m248.3312,241.4898l-4.8762-2.8153c-.3915-.226-.3424-.6208.1097-.8818l4.8314-2.7895c.4521-.261,1.136-.2894,1.5275-.0633l4.8762,2.8152c.3915.2261.3424.6209-.1097.8819l-4.8315,2.7895c-.4521.261-1.1359.2893-1.5274.0633Z"/>
      <path class="cls-14" d="m255.8614,245.8374l-4.8761-2.8153c-.3915-.226-.3424-.6208.1096-.8818l4.8315-2.7895c.4521-.261,1.136-.2894,1.5275-.0633l4.8761,2.8152c.3915.2261.3424.6209-.1096.8819l-4.8315,2.7895c-.4521.261-1.136.2893-1.5275.0633Z"/>
      <path class="cls-14" d="m263.3917,250.185l-4.8762-2.8153c-.3915-.226-.3424-.6208.1097-.8818l4.8315-2.7895c.4521-.261,1.1359-.2893,1.5274-.0633l4.8762,2.8152c.3915.2261.3424.6209-.1097.8819l-4.8314,2.7895c-.4521.261-1.136.2893-1.5275.0633Z"/>
      <path class="cls-14" d="m270.922,254.5326l-4.8762-2.8153c-.3915-.226-.3424-.6208.1097-.8818l4.8314-2.7895c.4521-.261,1.136-.2893,1.5275-.0633l4.8762,2.8152c.3915.2261.3424.6209-.1097.8819l-4.8315,2.7895c-.4521.261-1.1359.2893-1.5274.0633Z"/>
      <path class="cls-14" d="m278.4522,258.8802l-4.8761-2.8153c-.3915-.226-.3424-.6208.1096-.8818l4.8315-2.7895c.4521-.261,1.136-.2893,1.5275-.0633l4.8761,2.8153c.3915.226.3424.6208-.1096.8818l-4.8315,2.7895c-.4521.261-1.136.2893-1.5275.0633Z"/>
      <path class="cls-14" d="m285.9825,263.2278l-4.8762-2.8153c-.3915-.226-.3424-.6208.1097-.8818l4.8315-2.7895c.4521-.261,1.1359-.2893,1.5274-.0633l4.8762,2.8153c.3915.226.3424.6208-.1097.8818l-4.8314,2.7895c-.4521.261-1.136.2893-1.5275.0633Z"/>
      <path class="cls-14" d="m293.5128,267.5754l-4.8762-2.8153c-.3915-.226-.3424-.6208.1097-.8818l4.8315-2.7895c.452-.261,1.1359-.2893,1.5274-.0633l4.8762,2.8153c.3915.226.3424.6208-.1097.8818l-4.8315,2.7895c-.452.261-1.1359.2893-1.5274.0633Z"/>
      <path class="cls-14" d="m301.043,271.923l-4.8761-2.8152c-.3915-.2261-.3424-.6209.1096-.8819l4.8315-2.7895c.4521-.261,1.136-.2893,1.5275-.0633l4.8761,2.8153c.3916.226.3425.6208-.1096.8818l-4.8315,2.7895c-.4521.261-1.1359.2893-1.5275.0633Z"/>
      <path class="cls-14" d="m229.3055,222.0411l-4.8762-2.8153c-.3915-.226-.3424-.6209.1097-.8819l4.8314-2.7894c.4521-.261,1.136-.2894,1.5275-.0633l4.8762,2.8152c.3915.2261.3424.6209-.1097.8819l-4.8315,2.7894c-.4521.261-1.1359.2894-1.5274.0634Z"/>
      <path class="cls-14" d="m221.8127,217.7151l-4.8762-2.8153c-.3915-.226-.3424-.6208.1097-.8818l4.8314-2.7895c.4521-.261,1.136-.2894,1.5275-.0633l4.8762,2.8152c.3915.2261.3424.6209-.1097.8819l-4.8315,2.7895c-.4521.261-1.1359.2893-1.5274.0633Z"/>
      <path class="cls-14" d="m214.3199,213.3891l-4.8762-2.8152c-.3915-.2261-.3424-.6209.1097-.8819l4.8314-2.7895c.4521-.261,1.136-.2893,1.5275-.0633l4.8762,2.8153c.3915.226.3424.6208-.1097.8818l-4.8315,2.7895c-.4521.261-1.1359.2894-1.5274.0633Z"/>
      <path class="cls-14" d="m206.8271,209.0631l-4.8762-2.8152c-.3915-.2261-.3424-.6209.1097-.8819l4.8314-2.7894c.4521-.2611,1.136-.2894,1.5275-.0634l4.8761,2.8153c.3916.226.3425.6209-.1096.8819l-4.8315,2.7894c-.4521.261-1.1359.2894-1.5274.0633Z"/>
      <path class="cls-14" d="m214.5319,204.6147l-4.8761-2.8152c-.3916-.2261-.3425-.6209.1096-.8819l1.5972-.9221c.4521-.261,1.1359-.2894,1.5275-.0634l4.8761,2.8153c.3915.226.3424.6209-.1096.8819l-1.5972.9221c-.4521.261-1.136.2894-1.5275.0633Z"/>
      <path class="cls-14" d="m224.31,210.2601l-4.8761-2.8152c-.3915-.2261-.3424-.6209.1096-.8819l1.5972-.9221c.4521-.261,1.136-.2894,1.5275-.0634l4.8761,2.8153c.3915.226.3424.6209-.1096.8819l-1.5972.9221c-.4521.261-1.136.2894-1.5275.0633Z"/>
      <path class="cls-14" d="m231.7716,214.5681l-4.8761-2.8153c-.3916-.226-.3425-.6209.1096-.8819l1.5972-.9221c.4521-.261,1.1359-.2893,1.5275-.0633l4.8761,2.8152c.3915.2261.3424.6209-.1096.8819l-1.5972.9222c-.4521.261-1.136.2893-1.5275.0633Z"/>
      <path class="cls-14" d="m239.2332,218.876l-4.8762-2.8152c-.3915-.2261-.3424-.6209.1097-.8819l1.5972-.9221c.4521-.2611,1.1359-.2894,1.5274-.0634l4.8762,2.8153c.3915.226.3424.6209-.1097.8819l-1.5971.9221c-.4521.261-1.136.2894-1.5275.0633Z"/>
      <path class="cls-14" d="m246.6948,223.184l-4.8762-2.8153c-.3915-.226-.3424-.6209.1097-.8819l1.5972-.9221c.452-.261,1.1359-.2894,1.5274-.0633l4.8762,2.8152c.3915.2261.3424.6209-.1097.8819l-1.5972.9222c-.452.261-1.1359.2893-1.5274.0633Z"/>
      <path class="cls-14" d="m288.3517,247.2346l-4.8762-2.8153c-.3915-.226-.3424-.6209.1097-.8819l1.5971-.9221c.4521-.261,1.136-.2893,1.5275-.0633l4.8762,2.8152c.3915.2261.3424.6209-.1097.8819l-1.5972.9222c-.4521.261-1.1359.2893-1.5274.0633Z"/>
      <path class="cls-14" d="m295.8132,251.5425l-4.8761-2.8152c-.3915-.2261-.3424-.6209.1096-.8819l1.5972-.9221c.4521-.2611,1.136-.2894,1.5275-.0634l4.8761,2.8153c.3916.226.3425.6209-.1096.8819l-1.5972.9221c-.4521.261-1.1359.2894-1.5275.0633Z"/>
      <path class="cls-14" d="m303.2748,255.8505l-4.8761-2.8153c-.3915-.226-.3424-.6209.1096-.8819l1.5972-.9221c.4521-.261,1.136-.2893,1.5275-.0633l4.8761,2.8152c.3915.2261.3424.6209-.1096.8819l-1.5972.9222c-.4521.261-1.136.2893-1.5275.0633Z"/>
      <path class="cls-14" d="m310.7364,260.1584l-4.8761-2.8152c-.3916-.2261-.3425-.6209.1096-.8819l1.5972-.9221c.4521-.2611,1.1359-.2894,1.5275-.0634l4.8761,2.8153c.3915.226.3424.6209-.1096.8819l-1.5972.9221c-.4521.261-1.136.2894-1.5275.0633Z"/>
      <path class="cls-14" d="m236.8357,226.3887l-4.8761-2.8153c-.3915-.226-.3424-.6209.1096-.8819l4.8315-2.7894c.4521-.261,1.136-.2894,1.5275-.0633l4.8761,2.8152c.3915.2261.3424.6209-.1096.8819l-4.8315,2.7894c-.4521.2611-1.136.2894-1.5275.0634Z"/>
      <path class="cls-14" d="m244.366,230.7363l-4.8762-2.8153c-.3915-.226-.3424-.6209.1097-.8819l4.8315-2.7894c.4521-.261,1.1359-.2894,1.5274-.0633l4.8762,2.8152c.3915.2261.3424.6209-.1097.8819l-4.8314,2.7894c-.4521.2611-1.136.2894-1.5275.0634Z"/>
      <path class="cls-14" d="m251.8963,235.0839l-4.8762-2.8153c-.3915-.226-.3424-.6209.1097-.8819l4.8314-2.7894c.4521-.261,1.136-.2894,1.5275-.0633l4.8762,2.8152c.3915.2261.3424.6209-.1097.8819l-4.8315,2.7895c-.4521.261-1.1359.2893-1.5274.0633Z"/>
      <path class="cls-14" d="m259.4265,239.4315l-4.8761-2.8153c-.3915-.226-.3424-.6209.1096-.8819l4.8315-2.7894c.4521-.261,1.136-.2894,1.5275-.0633l4.8761,2.8152c.3916.2261.3425.6209-.1096.8819l-4.8315,2.7895c-.4521.261-1.1359.2893-1.5275.0633Z"/>
      <path class="cls-14" d="m266.9568,243.7791l-4.8762-2.8153c-.3915-.226-.3424-.6209.1097-.8819l4.8315-2.7894c.4521-.261,1.1359-.2894,1.5274-.0633l4.8762,2.8152c.3915.2261.3424.6209-.1097.8819l-4.8314,2.7895c-.4521.261-1.136.2893-1.5275.0633Z"/>
      <path class="cls-14" d="m274.4871,248.1267l-4.8762-2.8153c-.3915-.226-.3424-.6209.1097-.8819l4.8315-2.7894c.452-.261,1.1359-.2894,1.5274-.0633l4.8762,2.8152c.3915.2261.3424.6209-.1097.8819l-4.8315,2.7895c-.452.261-1.1359.2893-1.5274.0633Z"/>
      <path class="cls-14" d="m282.0173,252.4743l-4.8761-2.8153c-.3915-.226-.3424-.6208.1096-.8819l4.8315-2.7894c.4521-.261,1.136-.2894,1.5275-.0633l4.8761,2.8152c.3916.2261.3425.6209-.1096.8819l-4.8315,2.7895c-.4521.261-1.1359.2893-1.5275.0633Z"/>
      <path class="cls-14" d="m289.5476,256.8219l-4.8761-2.8153c-.3916-.226-.3425-.6208.1096-.8819l4.8315-2.7894c.4521-.261,1.1359-.2894,1.5274-.0633l4.8762,2.8152c.3915.2261.3424.6209-.1097.8819l-4.8314,2.7895c-.4521.261-1.136.2893-1.5275.0633Z"/>
      <path class="cls-14" d="m297.0779,261.1695l-4.8762-2.8153c-.3915-.226-.3424-.6208.1097-.8819l4.8315-2.7894c.452-.261,1.1359-.2894,1.5274-.0633l4.8762,2.8152c.3915.2261.3424.6209-.1097.8819l-4.8315,2.7895c-.452.261-1.1359.2893-1.5274.0633Z"/>
      <path class="cls-14" d="m193.784,226.9254l-14.3608-8.2912c-.3915-.226-.3425-.6209.1096-.8819l4.8315-2.7894c.4521-.261,1.1359-.2894,1.5275-.0633l14.3608,8.2912c.3915.226.3424.6209-.1097.8819l-4.8315,2.7894c-.4521.261-1.1359.2894-1.5274.0633Z"/>
      <path class="cls-14" d="m286.2951,280.3368l-14.3608-8.2912c-.3915-.2261-.3424-.6209.1097-.8819l4.8315-2.7895c.452-.261,1.1359-.2893,1.5274-.0633l14.3608,8.2912c.3915.2261.3424.6209-.1096.8819l-4.8315,2.7895c-.4521.261-1.136.2893-1.5275.0633Z"/>
      <path class="cls-14" d="m256.1805,272.5535l-4.8761-2.8153c-.3915-.226-.3424-.6208.1096-.8818l5.7556-3.323c.4521-.261,1.136-.2894,1.5275-.0633l4.8761,2.8152c.3915.2261.3424.6209-.1096.8819l-5.7556,3.323c-.4521.261-1.1359.2893-1.5275.0633Z"/>
      <path class="cls-14" d="m201.4956,240.9811l-7.7984-4.5024c-.3915-.226-.3424-.6209.1097-.8819l5.7555-3.3229c.4521-.261,1.136-.2894,1.5275-.0634l7.7983,4.5024c.3916.2261.3425.6209-.1096.8819l-5.7556,3.323c-.4521.261-1.1359.2893-1.5274.0633Z"/>
      <path class="cls-14" d="m248.925,268.3645l-7.7983-4.5024c-.3916-.226-.3425-.6208.1096-.8819l5.7556-3.3229c.4521-.261,1.1359-.2894,1.5274-.0633l7.7984,4.5023c.3915.2261.3424.6209-.1097.8819l-5.7555,3.323c-.4521.261-1.136.2893-1.5275.0633Z"/>
      <path class="cls-14" d="m212.3601,247.2538l-7.7983-4.5024c-.3915-.2261-.3424-.6209.1096-.8819l5.7556-3.323c.4521-.261,1.1359-.2893,1.5275-.0633l7.7983,4.5024c.3915.226.3424.6209-.1097.8819l-5.7555,3.3229c-.4521.261-1.136.2894-1.5275.0634Z"/>
      <path class="cls-14" d="m212.0073,238.5137l33.905,19.5751c.4207.2429.4207.6367,0,.8796l-5.8692,3.3885c-.4207.2429-1.1028.2429-1.5235,0l-33.905-19.575,7.3927-4.2682Z"/>
      <path class="cls-14" d="m277.2264,280.4362l5.4316,3.1359c.3209.1852.2806.5089-.0899.7228l-2.3545,1.3594c-.3705.2139-.9311.2371-1.252.0519l-5.4315-3.136c-.3209-.1852-.2807-.5089.0899-.7228l2.3544-1.3593c.3706-.214.9311-.2372,1.252-.0519Z"/>
      <path class="cls-14" d="m269.6337,276.0525l5.4316,3.1359c.3209.1853.2806.5089-.0899.7229l-2.3545,1.3593c-.3705.2139-.9311.2372-1.252.0519l-5.4315-3.1359c-.3209-.1853-.2807-.5089.0899-.7229l2.3544-1.3593c.3706-.2139.9311-.2372,1.252-.0519Z"/>
      <path class="cls-14" d="m262.1034,271.7049l5.4316,3.1359c.3209.1853.2807.5089-.0899.7229l-2.3544,1.3593c-.3706.2139-.9311.2372-1.252.0519l-5.4316-3.1359c-.3209-.1853-.2807-.5089.0899-.7229l2.3544-1.3593c.3706-.2139.9311-.2372,1.252-.0519Z"/>
      <path class="cls-14" d="m273.7921,273.6517l5.4315,3.1359c.321.1852.2807.5089-.0898.7228l-2.3545,1.3594c-.3705.2139-.9311.2371-1.252.0519l-5.4315-3.1359c-.321-.1853-.2807-.509.0898-.7229l2.3545-1.3593c.3705-.214.9311-.2372,1.252-.0519Z"/>
    </g>
    <path class="cls-19" d="m353.4876,264.8563l-143.8619-83.0587c-2.2622-1.3061-3.4428-4.4885-2.6371-7.108l32.5337-105.6312c.8058-2.6195,3.2929-3.6843,5.5551-2.3782l143.8619,83.0587c2.2622,1.306,3.4428,4.4884,2.637,7.1079l-32.5336,105.6312c-.8058,2.6196-3.2929,3.6843-5.5551,2.3783Z"/>
    <path class="cls-16" d="m352.131,261.1572l-139.5381-80.6294c-2.1648-1.2498-3.2947-4.2953-2.5236-6.8021l31.1038-100.9827c.7711-2.5068,3.1512-3.5258,5.3161-2.2759l139.5381,80.6293c2.1648,1.2499,3.2947,4.2954,2.5236,6.8022l-31.1038,100.9826c-.7711,2.5069-3.1512,3.5258-5.3161,2.276Z"/>
    <path class="cls-12" d="m352.131,261.1572l-139.5381-80.6294c-2.1648-1.2498-3.2947-4.2953-2.5236-6.8021l31.1038-100.9827c.7711-2.5068,3.1512-3.5258,5.3161-2.2759l139.5381,80.6293c2.1648,1.2499,3.2947,4.2954,2.5236,6.8022l-31.1038,100.9826c-.7711,2.5069-3.1512,3.5258-5.3161,2.276Z"/>
    <path class="cls-12" d="m352.131,261.1572l-139.5381-80.6294c-2.1648-1.2498-3.2947-4.2953-2.5236-6.8021l31.1038-100.9827c.7711-2.5068,3.1512-3.5258,5.3161-2.2759l139.5381,80.6293c2.1648,1.2499,3.2947,4.2954,2.5236,6.8022l-31.1038,100.9826c-.7711,2.5069-3.1512,3.5258-5.3161,2.276Z"/>
    <path class="cls-9" d="m344.6344,230.297l-94.46-54.5365c-1.4853-.8576-2.2606-2.9472-1.7315-4.6672l21.3617-69.3576c.5291-1.72,2.1621-2.4191,3.6475-1.5616l94.46,54.5365c1.4854.8576,2.2606,2.9472,1.7315,4.6671l-21.3617,69.3577c-.5291,1.72-2.1621,2.4191-3.6475,1.5616Z"/>
    <path class="cls-27" d="m331.8717,231.971l-94.46-54.5365c-1.4854-.8576-2.2606-2.9471-1.7315-4.6671l21.3617-69.3577c.5291-1.72,2.1621-2.4191,3.6474-1.5615l94.4601,54.5365c1.4853.8576,2.2605,2.9471,1.7315,4.6671l-21.3617,69.3577c-.5291,1.72-2.1621,2.4191-3.6475,1.5615Z"/>
    <g class="cls-8">
      <path class="cls-14" d="m331.8717,231.971l-94.46-54.5365c-1.4854-.8576-2.2606-2.9471-1.7315-4.6671l21.3617-69.3577c.5291-1.72,2.1621-2.4191,3.6474-1.5615l94.4601,54.5365c1.4853.8576,2.2605,2.9471,1.7315,4.6671l-21.3617,69.3577c-.5291,1.72-2.1621,2.4191-3.6475,1.5615Z"/>
    </g>
    <path class="cls-4" d="m355.1494,156.3847l-94.4601-54.5365c-.9308-.5375-1.9192-.4628-2.6579.0905.4455-.0132.9102.0875,1.364.3494l94.4602,54.5365c1.4851.8575,2.2603,2.9472,1.7313,4.667l-21.3615,69.3577c-.1977.6422-.5496,1.1414-.9898,1.471,1.0132-.0302,1.916-.7163,2.2836-1.9109l21.3616-69.3577c.5292-1.7199-.246-3.8095-1.7314-4.667Z"/>
    <path class="cls-12" d="m212.7357,288.6086c-1.3018,0-2.5479-.2705-3.5-.8203v.0009l-37.8457-21.8496c-1.0029-.5801-1.5547-1.4072-1.5547-2.332-.001-1.0723.7607-2.127,2.0869-2.8926l19.4805-11.248c2.3808-1.3731,5.874-1.5078,7.957-.3067l37.8447,21.8496c1.003.5791,1.5547,1.4073,1.5557,2.3321,0,1.0722-.7607,2.1269-2.0869,2.8925l-19.4815,11.2481c-1.2919.7451-2.9121,1.126-4.456,1.126Zm-16.8584-39.1621c-1.3682,0-2.8213.3291-3.9277.9677l-19.4805,11.2471c-.9795.5654-1.542,1.2754-1.542,1.9463,0,.6631.5488,1.1191,1.0098,1.3848l37.8457,21.8505c1.7168.9893,4.8584.8506,6.8623-.3076l19.4814-11.247c.9795-.5655,1.541-1.2745,1.541-1.9463,0-.6631-.5488-1.1192-1.0097-1.3848l-37.8448-21.8496c-.7685-.4443-1.8242-.6611-2.9355-.6611Z"/>
  </g>
  <g>
    <g>
      <path class="cls-4" d="m283.6968,138.2356l-5.8398-3.3716c-.5418-.3129-.8324-1.0647-.6491-1.6793h0c.1834-.6146.7712-.8593,1.313-.5464l5.8399,3.3716c.5418.3128.8324,1.0646.649,1.6793h0c-.1833.6146-.7712.8592-1.313.5464Z"/>
      <path class="cls-4" d="m297.6075,146.2669l-8.6111-4.9716c-.5418-.3128-.8323-1.0646-.649-1.6792h0c.1834-.6146.7712-.8593,1.313-.5464l8.611,4.9715c.5418.3128.8324,1.0647.6491,1.6793h0c-.1834.6146-.7712.8592-1.313.5464Z"/>
      <path class="cls-4" d="m271.9195,164.2353l-5.8398-3.3717c-.5418-.3128-.8324-1.0646-.6491-1.6792h0c.1834-.6146.7712-.8593,1.313-.5465l5.8399,3.3717c.5418.3128.8324,1.0646.649,1.6792h0c-.1833.6146-.7712.8593-1.313.5465Z"/>
      <path class="cls-4" d="m284.3197,171.3945l-8.611-4.9715c-.5418-.3128-.8324-1.0647-.649-1.6793h0c.1833-.6146.7712-.8592,1.313-.5464l8.611,4.9716c.5418.3128.8324,1.0646.649,1.6792h0c-.1833.6146-.7712.8593-1.313.5464Z"/>
      <path class="cls-4" d="m266.2033,133.6023l-3.6481-2.1063c-.5418-.3128-.8324-1.0646-.6491-1.6793h0c.1834-.6146.7712-.8592,1.313-.5464l3.6482,2.1063c.5418.3128.8324,1.0646.649,1.6792h0c-.1833.6146-.7712.8593-1.313.5465Z"/>
      <path class="cls-4" d="m277.1805,145.4065l-11.1464-6.4354c-.5418-.3128-.8324-1.0646-.649-1.6792h0c.1833-.6146.7712-.8593,1.313-.5465l11.1464,6.4354c.5418.3128.8324,1.0647.649,1.6793h0c-.1833.6146-.7712.8592-1.313.5464Z"/>
      <path class="cls-4" d="m266.8999,150.4041l-3.6481-2.1062c-.5418-.3129-.8324-1.0647-.649-1.6793h0c.1833-.6146.7712-.8593,1.313-.5464l3.6481,2.1062c.5418.3128.8324,1.0647.6491,1.6793h0c-.1833.6146-.7712.8592-1.313.5464Z"/>
      <path class="cls-4" d="m285.6641,183.1038l-9.7438-5.6256c-.5418-.3128-.8324-1.0646-.6491-1.6792h0c.1834-.6146.7712-.8593,1.313-.5465l9.7439,5.6256c.5418.3129.8324,1.0647.649,1.6793h0c-.1833.6146-.7712.8593-1.313.5464Z"/>
      <path class="cls-4" d="m262.8111,158.9765l-2.3416-1.3519c-.5418-.3128-.8324-1.0647-.6491-1.6793h0c.1834-.6146.7712-.8592,1.313-.5464l2.3417,1.3519c.5418.3129.8324,1.0647.649,1.6793h0c-.1833.6146-.7712.8593-1.313.5464Z"/>
      <path class="cls-4" d="m260.5952,168.6303l-2.9081-1.679c-.5418-.3128-.8324-1.0646-.649-1.6792h0c.1833-.6147.7712-.8593,1.313-.5465l2.9081,1.679c.5418.3128.8324,1.0646.649,1.6792h0c-.1833.6146-.7712.8593-1.313.5465Z"/>
      <path class="cls-4" d="m271.9083,175.1619l-7.667-4.4265c-.5418-.3128-.8323-1.0647-.649-1.6793h0c.1833-.6146.7712-.8592,1.313-.5464l7.667,4.4265c.5418.3128.8324,1.0647.649,1.6793h0c-.1833.6146-.7712.8592-1.313.5464Z"/>
      <path class="cls-4" d="m261.8085,174.7973l-5.5125-3.1826c-.5419-.3129-.8324-1.0647-.6491-1.6793h0c.1834-.6146.7712-.8593,1.313-.5464l5.5126,3.1826c.5418.3129.8324,1.0647.649,1.6793h0c-.1833.6146-.7712.8593-1.313.5464Z"/>
      <path class="cls-4" d="m294.0236,187.9537l-3.5403-2.044c-.5418-.3128-.8324-1.0646-.649-1.6792h0c.1833-.6146.7712-.8593,1.313-.5465l3.5402,2.044c.5418.3128.8324,1.0646.6491,1.6792h0c-.1834.6146-.7712.8593-1.313.5465Z"/>
      <path class="cls-4" d="m280.4703,158.239l-9.7439-5.6257c-.5418-.3128-.8324-1.0646-.649-1.6792h0c.1833-.6146.7712-.8593,1.313-.5465l9.7438,5.6257c.5418.3128.8324,1.0646.6491,1.6792h0c-.1834.6146-.7712.8593-1.313.5465Z"/>
    </g>
    <path class="cls-25" d="m281.6253,153.4393l-16.9823-9.8048c-.5418-.3128-.8324-1.0646-.6491-1.6793h0c.1834-.6146.7712-.8592,1.313-.5464l16.9824,9.8048c.5418.3128.8324,1.0646.649,1.6792h0c-.1833.6146-.7712.8593-1.313.5465Z"/>
    <path class="cls-25" d="m271.6045,158.5868l-9.7439-5.6256c-.5418-.3128-.8324-1.0646-.649-1.6792h0c.1833-.6146.7712-.8593,1.313-.5465l9.7438,5.6256c.5418.3128.8324,1.0647.6491,1.6793h0c-.1834.6146-.7712.8592-1.313.5464Z"/>
    <path class="cls-25" d="m287.8606,162.5058l-3.5402-2.044c-.5418-.3128-.8324-1.0646-.6491-1.6792h0c.1834-.6146.7712-.8593,1.313-.5465l3.5403,2.044c.5418.3128.8324,1.0646.649,1.6792h0c-.1833.6146-.7712.8593-1.313.5465Z"/>
    <path class="cls-25" d="m323.8718,161.4307l-20.9647-12.104c-.5418-.3128-.8324-1.0647-.6491-1.6793h0c.1834-.6146.7712-.8592,1.313-.5464l20.9648,12.104c.5418.3128.8324,1.0646.649,1.6792h0c-.1833.6146-.7712.8593-1.313.5465Z"/>
    <path class="cls-15" d="m270.7911,169.0503l-11.7128-6.7624c-.5418-.3128-.8324-1.0646-.6491-1.6792h0c.1834-.6146.7713-.8593,1.3131-.5465l11.7128,6.7624c.5418.3129.8324,1.0647.649,1.6793h0c-.1833.6146-.7712.8592-1.313.5464Z"/>
    <path class="cls-15" d="m272.5573,131.8042l-8.611-4.9716c-.5418-.3128-.8324-1.0646-.649-1.6792h0c.1833-.6146.7712-.8593,1.313-.5465l8.611,4.9716c.5418.3128.8324,1.0647.6491,1.6793h0c-.1834.6146-.7712.8592-1.3131.5464Z"/>
    <path class="cls-25" d="m260.0077,179.2242l-9.9731-5.758c-.5418-.3128-.8323-1.0646-.649-1.6792h0c.1834-.6146.7712-.8593,1.313-.5465l9.9731,5.758c.5418.3128.8324,1.0647.6491,1.6793h0c-.1834.6146-.7712.8592-1.3131.5464Z"/>
  </g>
  <g>
    <path class="cls-4" d="m326.225,150.6486l-4.2685-2.4645c-.3961-.2286-.6085-.7781-.4744-1.2274h0c.134-.4492.5637-.628.9597-.3994l4.2685,2.4644c.396.2287.6084.7782.4744,1.2275h0c-.134.4492-.5637.628-.9597.3994Z"/>
    <path class="cls-4" d="m334.3672,155.3495l-4.2686-2.4645c-.396-.2286-.6084-.7781-.4744-1.2274h0c.134-.4492.5637-.628.9598-.3994l4.2685,2.4644c.396.2287.6084.7782.4744,1.2274h0c-.134.4493-.5637.6281-.9597.3995Z"/>
    <path class="cls-4" d="m342.5093,160.0504l-4.2685-2.4645c-.396-.2286-.6084-.7782-.4744-1.2274h0c.134-.4492.5637-.6281.9597-.3994l4.2685,2.4644c.3961.2287.6085.7782.4745,1.2274h0c-.1341.4493-.5637.6281-.9598.3995Z"/>
    <path class="cls-15" d="m346.5114,162.3639l-.1284-.0771c-.396-.2286-.6084-.7782-.4744-1.2274h0c.134-.4492.5637-.6281.9597-.3994l.1284.0771c.3961.2286.6085.7782.4744,1.2274h0c-.134.4492-.5637.6281-.9597.3994Z"/>
  </g>
  <path class="cls-2" d="m126.1986,212.3185c-2.7012,0-5.4033-.6953-7.8125-2.0869h0l-28.5947-16.5097c-1.2403-.7159-1.9805-1.9971-1.9805-3.4288s.7402-2.7128,1.9805-3.4287l28.5937-16.5088c4.8184-2.7822,10.8076-2.7832,15.626,0l28.5947,16.5098c1.2402.7158,1.9805,1.9971,1.9805,3.4287s-.7403,2.7129-1.9805,3.4287l-28.5937,16.5088c-2.4092,1.3916-5.1114,2.0869-7.8135,2.0869Zm-6.8828-3.6982c4.2461,2.4502,9.5205,2.4502,13.7666,0l28.5937-16.5088c.6563-.3799,1.0489-1.0586,1.0489-1.8174s-.3926-1.4375-1.0489-1.8174l-28.5947-16.5097c-4.248-2.4522-9.5225-2.4502-13.7666,0l-28.5938,16.5088c-.6562.3798-1.0488,1.0586-1.0488,1.8173s.3926,1.4375,1.0488,1.8174l28.5948,16.5098Z"/>
  <g>
    <path class="cls-7" d="m139.9422,198.7006c-7.6699,4.4283-20.1057,4.4282-27.7759-.0002-7.6702-4.4284-7.6704-11.6082-.0004-16.0364,7.67-4.4283,20.1057-4.4282,27.7759.0002,7.6703,4.4284,7.6704,11.6082.0004,16.0364Z"/>
    <path class="cls-23" d="m155.1682,109.8633h-55.9421l5.2033,60.5691h0c0,3.3641,2.2229,6.7282,6.6688,9.2947,8.8915,5.1336,23.3075,5.1338,32.1987.0003,4.4459-2.5668,6.6685-5.9309,6.6682-9.2953l5.2031-60.5688Z"/>
    <path class="cls-12" d="m155.1682,109.8633h-55.9421l.8559,9.9645c1.2819,1.644,3.0069,3.2196,5.1849,4.6643,10.6897,7.0913,28.328,8.4576,40.3637,3.351l-1.8615,44.3001c-.0812,1.9307-.748,3.809-1.9988,5.282-1.8119,2.1328-5.3035,4.6421-12.0145,6.0607,4.9468-.3213,9.7477-1.5682,13.5411-3.7585,4.4459-2.5668,6.6685-5.9309,6.6682-9.2953l4.1727-48.5748h0l1.0304-11.994Z"/>
    <ellipse class="cls-12" cx="127.1972" cy="109.8633" rx="27.9711" ry="16.1491"/>
    <ellipse class="cls-12" cx="127.1972" cy="104.171" rx="24.0921" ry="13.9096"/>
    <path class="cls-20" d="m156.8249,109.1024l.0028.004-.0047-.0491c-.0022-.0276-.0059-.0553-.0084-.083l-.5369-5.4229-.0233.0609c-.2402-4.1047-3.0671-8.1686-8.4942-11.302-11.3568-6.5569-29.7699-6.557-41.1264-.0004-5.5639,3.2125-8.3947,7.4027-8.5064,11.6127l-.0067-.0142-.5116,4.829c-.0142.1257-.0306.2511-.0401.3768l-.0083.0794.0053-.0035c-.3067,4.6005,2.5763,9.2588,8.6599,12.7711,11.5823,6.6872,30.3612,6.6873,41.9436.0004,6.1219-3.5347,9.0052-8.23,8.6554-12.8592Z"/>
    <ellipse class="cls-26" cx="127.1972" cy="104.171" rx="24.0921" ry="13.9096"/>
    <ellipse class="cls-6" cx="126.054" cy="104.171" rx="24.0921" ry="13.9096"/>
    <path class="cls-12" d="m113.0192,96.4073c9.4083-5.432,24.6627-5.4319,34.0713.0003.1198.0692.2202.145.3372.2152-.9076-.8091-1.9668-1.578-3.195-2.2872-9.4087-5.4321-24.6631-5.4323-34.0714-.0002-9.2886,5.3626-9.3888,14.0091-.3366,19.4557-6.0445-5.3891-4.9856-12.6611,3.1945-17.3838Z"/>
    <path class="cls-11" d="m110.1611,96.7494c9.4087-5.432,24.6629-5.4319,34.0716.0002,4.1721,2.4088,6.49,5.4814,6.9622,8.6289.5924-3.9506-1.7255-8.0195-6.9622-11.0429-9.4087-5.4321-24.6629-5.4323-34.0716-.0003-5.2363,3.0232-7.5539,7.0918-6.9616,11.0423.4722-3.1474,2.7899-6.2197,6.9616-8.6282Z"/>
    <path class="cls-28" d="m147.9401,92.437c-11.3408-6.6811-29.8209-6.8438-41.2769-.3634-11.456,6.4804-11.5495,17.15-.209,23.8311,11.3404,6.6812,29.8205,6.8441,41.2766.3636,11.456-6.4804,11.5497-17.1499.2093-23.8313Zm-3.7069,21.5696c-3.1428,1.8146-6.9431,3.0086-10.955,3.6108l-.4374-1.437c-.1766-.5802-.7116-.9768-1.3181-.9768h-8.6512c-.6064,0-1.1417.3966-1.3184.9768l-.437,1.4368c-4.0116-.6023-7.8114-1.7964-10.9542-3.6109-9.4089-5.432-9.4092-14.2391-.0006-19.6709,9.4083-5.4321,24.6627-5.4319,34.0714.0002,9.4089,5.4321,9.4089,14.2391.0005,19.671Z"/>
    <g>
      <path class="cls-4" d="m144.2327,93.3057c-9.4087-5.4321-24.663-5.4323-34.0714-.0002-4.931,2.8468-7.2728,6.6206-7.0349,10.3498.2158-3.386,2.5576-6.7352,7.0349-9.3199,9.4084-5.4321,24.6627-5.432,34.0714.0002,4.4775,2.585,6.8193,5.9344,7.0354,9.3206.2379-3.7294-2.1039-7.5035-7.0354-10.3505Z"/>
      <path class="cls-4" d="m147.7308,115.2384c-11.456,6.4804-29.9361,6.3177-41.2767-.3636-5.3965-3.1794-8.1981-7.2621-8.4239-11.3667-.2233,4.4452,2.5757,8.9513,8.4239,12.3966,11.3406,6.6812,29.8207,6.8441,41.2767.3636,6.0041-3.3965,8.8816-7.9438,8.633-12.4645-.21,4.1748-3.0847,8.2961-8.633,11.4346Z"/>
    </g>
    <rect class="cls-22" x="123.9582" y="116.9678" width="6.4777" height="1.3982" rx=".6535" ry=".6535"/>
    <path class="cls-21" d="m129.7823,116.9678h-5.1707c-.3608,0-.6533.2927-.6533.6535v.0913c0,.0617.019.1173.0352.1739.0773-.2744.319-.4794.6181-.4794h5.1707c.2992,0,.5409.205.6185.4794.0159-.0566.0351-.1122.0351-.1739v-.0913c0-.3608-.2924-.6535-.6536-.6535Z"/>
    <g>
      <path class="cls-25" d="m127.9892,164.2105c-.6343,2.3854-3.0822,3.8049-5.4676,3.1707-2.3853-.6343-3.8049-3.0822-3.1706-5.4675.6342-2.3854,2.8843-3.0609,5.2696-2.4266,2.3854.6343,4.0028,2.338,3.3686,4.7234Z"/>
      <path class="cls-25" d="m131.5077,159.5023c-.8996.8794-2.0508.7657-2.8147-.0158-.7639-.7815-.8513-1.9349.0484-2.8143.8996-.8794,2.6102-1.3126,3.3741-.531.7639.7815.2919,2.4817-.6078,3.3611Z"/>
      <path class="cls-25" d="m126.8335,155.7631c-.2204,1.2386-1.2229,1.8156-2.2989,1.6242-1.0759-.1915-1.8178-1.0789-1.5974-2.3175s1.36-2.5859,2.4359-2.3944c1.076.1915,1.6808,1.8491,1.4604,3.0877Z"/>
      <path class="cls-25" d="m121.0722,155.191c.4786,1.1635-.0578,2.1884-1.0684,2.6041-1.0107.4158-2.113.0651-2.5916-1.0984-.4786-1.1634-.2399-2.9118.7708-3.3276,1.0106-.4157,2.4105.6585,2.8892,1.8219Z"/>
    </g>
  </g>
  <path class="cls-5" d="m129.0293,117.6669s15.6401-5.2414,9.3075-23.2122-18.6624-23.4476-13.6955-37.8242c0,0-7.7839,11.6382-.51,27.384s8.8693,13.9371,8.7838,21.4678c-.1017,8.9467-7.329,12.1846-7.329,12.1846h3.4432Z"/>
  <path class="cls-5" d="m130.4359,59.1305s-1.6282-10.75,8.4551-21.5834c0,0-8.9167,19.9167-6,29.75,0,0-2.3591-6.2504-2.4551-8.1666Z"/>
</svg>